<svg xmlns="http://www.w3.org/2000/svg" xml:space="preserve" style="enable-background:new 0 0 500 500" viewBox="0 0 500 500"><path d="M0 0h500v500H0z" style="fill-rule:evenodd;clip-rule:evenodd;fill:#fff"/><path d="M92.209 380.071c-4.37-20.831-17.686-78.513-5.557-108.439 9.943-24.535 53.764-43.942 84.823 12.229 0 0 30.626-96.626 79.266-92.722 48.641 3.903 38.733 121.79 38.733 121.79s39.633-46.061 63.953-17.956c24.319 28.105 24.319 74.168 24.319 74.168s32.428-47.624 54.946-28.106c22.518 19.519 15.313 88.221 15.313 88.221l-399.932 3.123c-8.855-44.691-.371-125.174 44.136-52.308z" style="fill-rule:evenodd;clip-rule:evenodd;fill:#ebf2e4"/><path d="M220.232 358.767a.476.476 0 0 0-.919.247c.011.041 2.418 10.594 1.586 23.129-.708 10.657-4.043 22.933-10.143 29.432a.477.477 0 1 0 .693.654c6.347-6.761 9.724-19.453 10.417-30.389.797-12.569-1.622-23.031-1.634-23.073z" style="fill-rule:evenodd;clip-rule:evenodd;fill:#6f8b59"/><path d="M228.016 390.204c1.014.32 1.554.776 1.726 1.31.288.891-.452 1.752-1.73 2.466-1.048.584-2.504 1.117-3.98 1.479-2.531.618-5.171.692-6.209-.331-1.317.934-3.915-.52-6.06-2.506-1.115-1.032-2.128-2.206-2.761-3.227-.771-1.244-.999-2.356-.313-2.995.409-.382 1.101-.518 2.141-.307 1.493.304 3.445 1.506 5.006 2.928.907.826 1.692 1.733 2.192 2.59.092.158.175.315.248.472.226-.196.486-.381.775-.553.852-.505 1.98-.917 3.173-1.198 2.052-.485 4.341-.588 5.792-.128zm-11.79-37.982c.283-1.023.718-1.577 1.246-1.77.879-.32 1.767.386 2.525 1.637h.002c.621 1.022 1.207 2.459 1.623 3.925 1.476 4.954-.561 9.819-3.742 5.125-.537-.834-.99-1.947-1.315-3.13-.559-2.035-.745-4.319-.339-5.787zm-5.945 10.635c-.465.815.083 1.81 1.188 2.768.907.786 2.223 1.605 3.594 2.259 2.639 1.259 5.551 1.874 6.532.589 1.295.67 3.794-.186 6.028-1.529 1.301-.783 2.532-1.726 3.359-2.595 1.008-1.061 1.457-2.104.916-2.87-.322-.456-.972-.729-2.033-.735-1.525-.007-3.681.771-5.496 1.844-1.054.622-2.007 1.351-2.672 2.089-.225.25-.419.504-.576.758a6.114 6.114 0 0 0-.378-.377c-.733-.672-1.753-1.305-2.861-1.822-1.911-.893-4.131-1.459-5.648-1.305-1.057.106-1.676.441-1.953.926zm.486 8.208c.307-.466.947-.759 2.009-.797 1.526-.056 3.705.653 5.552 1.668 1.077.591 2.053 1.289 2.74 2.004.127.132.244.266.352.4.173-.243.382-.482.623-.717.712-.694 1.711-1.358 2.802-1.911 1.883-.953 4.086-1.591 5.605-1.484 1.059.074 1.689.39 1.982.866.49.8-.025 1.812-1.101 2.806-.879.812-2.169 1.671-3.523 2.369-2.316 1.195-4.864 1.888-6.114 1.138-1.063 1.218-3.928.414-6.479-1.014-1.326-.741-2.588-1.645-3.441-2.488-1.042-1.028-1.524-2.056-1.007-2.84zm.137 7.535c-.624.701-.295 1.788.588 2.954.724.957 1.843 2.031 3.049 2.955 2.32 1.777 5.041 2.982 6.267 1.93 1.129.923 3.751.602 6.214-.249 1.437-.497 2.837-1.164 3.826-1.844 1.206-.829 1.861-1.755 1.491-2.615-.221-.515-.8-.918-1.837-1.143-1.491-.323-3.76-.008-5.759.665-1.162.392-2.247.907-3.049 1.49a5.303 5.303 0 0 0-.72.622 5.91 5.91 0 0 0-.29-.445c-.577-.806-1.444-1.637-2.424-2.375-1.685-1.268-3.741-2.284-5.258-2.447-1.053-.114-1.728.086-2.098.502zM325.955 363.467a.475.475 0 1 0-.946-.098c-.004.043-1.537 10.757-6.806 22.162-4.479 9.695-11.992 19.962-20.015 23.843a.478.478 0 0 0 .413.861c8.348-4.038 16.048-14.679 20.612-24.64 5.248-11.45 6.738-22.085 6.742-22.128z" style="fill-rule:evenodd;clip-rule:evenodd;fill:#6f8b59"/><path d="M321.959 395.605c.831.663 1.172 1.281 1.142 1.842-.05.935-1.049 1.474-2.499 1.682-1.188.17-2.738.146-4.245-.046-2.585-.329-5.076-1.206-5.679-2.533-1.565.4-3.469-1.888-4.76-4.511-.671-1.363-1.197-2.821-1.422-4.001-.273-1.438-.088-2.558.781-2.909.519-.21 1.213-.089 2.108.48 1.285.818 2.677 2.641 3.625 4.527.55 1.097.958 2.225 1.118 3.203.029.181.05.357.063.529.281-.103.59-.182.921-.238.977-.166 2.177-.146 3.392.018 2.091.285 4.265 1.008 5.455 1.957zm2.601-39.684c.631-.853 1.236-1.215 1.797-1.206.936.016 1.511.994 1.772 2.433l.003.001c.213 1.178.245 2.729.107 4.246-.395 5.154-4.041 8.967-5.328 3.443-.203-.971-.228-2.172-.107-3.393.206-2.1.85-4.299 1.756-5.524zm-9.362 7.8c-.725.594-.571 1.719.118 3.01.564 1.059 1.5 2.295 2.546 3.397 2.013 2.12 4.512 3.739 5.888 2.891.97 1.089 3.609 1.185 6.176.731 1.495-.266 2.982-.703 4.065-1.22 1.322-.629 2.114-1.441 1.884-2.351-.138-.542-.646-1.029-1.635-1.415-1.421-.553-3.713-.599-5.792-.248-1.206.204-2.357.542-3.243.993a5.245 5.245 0 0 0-.809.501 6.06 6.06 0 0 0-.218-.488c-.444-.889-1.17-1.845-2.018-2.726-1.464-1.518-3.334-2.843-4.806-3.241-1.024-.279-1.723-.189-2.156.166zm-2.486 7.837c.453-.324 1.156-.369 2.161-.024 1.444.495 3.225 1.939 4.585 3.547.793.938 1.456 1.938 1.84 2.852.071.169.133.335.186.5.249-.165.53-.313.838-.446.913-.392 2.084-.655 3.301-.78 2.101-.215 4.385-.021 5.766.623.962.448 1.438.969 1.539 1.519.171.922-.673 1.682-2.033 2.224-1.111.443-2.624.783-4.137.951-2.591.286-5.219.018-6.116-1.129-1.428.756-3.815-1.021-5.686-3.268-.973-1.168-1.826-2.463-2.321-3.557-.605-1.334-.687-2.467.077-3.012zm-2.572 7.083c-.833.432-.915 1.564-.509 2.969.333 1.153.993 2.557 1.788 3.852 1.529 2.49 3.638 4.59 5.159 4.047.724 1.266 3.286 1.906 5.891 1.994 1.52.051 3.066-.07 4.232-.351 1.423-.342 2.367-.972 2.33-1.907-.022-.561-.419-1.144-1.306-1.725-1.276-.836-3.508-1.355-5.615-1.442-1.225-.051-2.422.042-3.38.299a5.342 5.342 0 0 0-.895.322 5.82 5.82 0 0 0-.111-.519c-.25-.96-.762-2.046-1.412-3.086-1.118-1.789-2.675-3.473-4.032-4.169-.944-.484-1.645-.54-2.14-.284z" style="fill-rule:evenodd;clip-rule:evenodd;fill:#6f8b59"/><path d="M190.643 367.267a.476.476 0 1 1 .951.008c0 .043.313 10.861 4.261 22.787 3.356 10.141 9.662 21.189 17.195 25.951a.477.477 0 1 1-.508.807c-7.838-4.954-14.288-16.396-17.699-26.809-3.921-11.967-4.201-22.701-4.2-22.744z" style="fill-rule:evenodd;clip-rule:evenodd;fill:#a2c043"/><path d="M190.985 399.65c-.901.564-1.31 1.142-1.343 1.7-.056.935.876 1.583 2.293 1.954 1.161.303 2.704.454 4.223.434 2.606-.035 5.18-.625 5.929-1.877 1.509.576 3.66-1.483 5.239-3.943.82-1.279 1.508-2.669 1.864-3.815.435-1.398.376-2.532-.448-2.979-.492-.268-1.195-.226-2.149.239-1.37.668-2.958 2.322-4.113 4.09-.671 1.027-1.204 2.102-1.473 3.056a6.34 6.34 0 0 0-.122.519 5.218 5.218 0 0 0-.889-.34c-.952-.276-2.146-.392-3.372-.365-2.107.045-4.349.519-5.639 1.327zm1.896-39.724c-.53-.919-1.091-1.348-1.649-1.401-.931-.089-1.613.817-2.035 2.218h-.003c-.345 1.147-.552 2.684-.587 4.207-.189 5.165 3.003 9.365 4.906 4.023.311-.942.471-2.133.489-3.359.032-2.111-.36-4.369-1.121-5.688zm8.421 8.806c.654.672.374 1.773-.457 2.978-.681.988-1.75 2.11-2.913 3.087-2.239 1.88-4.905 3.206-6.176 2.208-1.087.972-3.72.77-6.219.029-1.456-.433-2.884-1.036-3.902-1.671-1.242-.773-1.938-1.671-1.607-2.548.198-.523.758-.95 1.785-1.222 1.474-.389 3.756-.176 5.783.407 1.175.339 2.281.805 3.11 1.352.28.186.532.383.747.59.081-.153.171-.307.271-.46.542-.834 1.37-1.701 2.314-2.481 1.626-1.343 3.633-2.447 5.141-2.679 1.05-.159 1.734.01 2.123.41zm1.586 8.069c-.414-.374-1.107-.497-2.145-.269-1.491.328-3.423 1.562-4.957 3.006-.893.842-1.664 1.763-2.149 2.626-.09.16-.17.319-.241.477a5.394 5.394 0 0 0-.782-.538c-.863-.493-1.997-.887-3.192-1.147-2.062-.451-4.354-.516-5.798-.032-1.007.337-1.538.801-1.701 1.335-.275.897.479 1.747 1.768 2.439 1.054.565 2.519 1.074 4.004 1.411 2.542.577 5.182.608 6.204-.43 1.334.912 3.907-.585 6.019-2.605 1.098-1.051 2.092-2.241 2.707-3.271.751-1.258.959-2.374.263-3.002zm1.756 7.327c.779.523.733 1.657.171 3.008-.462 1.107-1.275 2.428-2.212 3.625-1.801 2.302-4.132 4.149-5.583 3.438-.862 1.176-3.48 1.523-6.078 1.315-1.516-.12-3.039-.415-4.166-.825-1.376-.5-2.242-1.233-2.099-2.158.085-.555.544-1.089 1.492-1.566 1.362-.687 3.638-.95 5.742-.799 1.223.088 2.402.315 3.325.678.313.123.599.264.853.422.047-.165.104-.333.169-.503.357-.926.988-1.946 1.752-2.907 1.313-1.65 3.049-3.148 4.477-3.687.99-.374 1.694-.351 2.157-.041z" style="fill-rule:evenodd;clip-rule:evenodd;fill:#a2c043"/><path d="M426.442 420.637c11.004-2.194 48.46 1.283 42.534-13.168-3.663-8.932-21.209-12.108-42.534 13.168z" style="fill-rule:evenodd;clip-rule:evenodd;fill:#bdce60"/><path d="M461.421 408.793a.46.46 0 0 0-.06-.918c-.039.002-10.865.615-28.993 9.889a90.1 90.1 0 0 0-1.21 1.4c.235-.047.489-.09.753-.131 18.467-9.615 29.47-10.237 29.51-10.24z" style="fill-rule:evenodd;clip-rule:evenodd;fill:#dbe4aa"/><path d="M455.667 409.088a.459.459 0 1 0-.491.777l6.237 3.964a.46.46 0 1 0 .492-.777l-6.238-3.964z" style="fill-rule:evenodd;clip-rule:evenodd;fill:#dbe4aa"/><path d="M455.073 409.113a.462.462 0 0 0 .789.479l3.253-5.334a.46.46 0 1 0-.788-.479l-3.254 5.334zM450.368 410.647a.46.46 0 0 0-.492.777l6.238 3.964a.459.459 0 1 0 .492-.777l-6.238-3.964z" style="fill-rule:evenodd;clip-rule:evenodd;fill:#dbe4aa"/><path d="M449.398 410.679a.46.46 0 1 0 .787.478l3.253-5.334a.46.46 0 1 0-.788-.478l-3.252 5.334zM444.515 412.599a.46.46 0 1 0-.475.792l5.638 3.378a.462.462 0 0 0 .474-.792l-5.637-3.378z" style="fill-rule:evenodd;clip-rule:evenodd;fill:#dbe4aa"/><path d="M443.721 412.606a.46.46 0 1 0 .849.359l2.431-5.755a.46.46 0 1 0-.849-.358l-2.431 5.754zM438.614 414.978a.46.46 0 1 0-.314.866l5.162 1.858a.46.46 0 1 0 .313-.866l-5.161-1.858z" style="fill-rule:evenodd;clip-rule:evenodd;fill:#dbe4aa"/><path d="M393.05 416.184c-9.534-5.918-45.826-15.811-35.204-27.263 6.565-7.077 24.11-3.892 35.204 27.263z" style="fill-rule:evenodd;clip-rule:evenodd;fill:#809e6a"/><path d="M365.06 393.552a.436.436 0 1 1 .34-.805c.035.015 10.044 4.126 23.969 18.949.158.423.315.85.471 1.286-.3-.187-.638-.379-1.002-.575-13.839-14.772-23.743-18.841-23.778-18.855z" style="fill-rule:evenodd;clip-rule:evenodd;fill:#9eb28b"/><path d="M370.138 395.607a.436.436 0 1 1 .2.849l-6.838 1.621a.436.436 0 1 1-.2-.85l6.838-1.62z" style="fill-rule:evenodd;clip-rule:evenodd;fill:#9eb28b"/><path d="M370.663 395.815a.438.438 0 1 1-.857.184l-1.265-5.806a.438.438 0 0 1 .858-.183l1.264 5.805zM374.415 398.656a.437.437 0 0 1 .2.85l-6.838 1.621a.436.436 0 0 1-.201-.85l6.839-1.621z" style="fill-rule:evenodd;clip-rule:evenodd;fill:#9eb28b"/><path d="M375.276 398.986a.44.44 0 0 1-.336.522.44.44 0 0 1-.521-.337l-1.264-5.806a.438.438 0 0 1 .857-.184l1.264 5.805zM379.067 402.231a.44.44 0 1 1 .18.859l-6.116 1.282a.44.44 0 0 1-.18-.86l6.116-1.281z" style="fill-rule:evenodd;clip-rule:evenodd;fill:#9eb28b"/><path d="M379.778 402.485a.438.438 0 1 1-.875.058l-.393-5.928a.438.438 0 1 1 .874-.059l.394 5.929zM383.63 406.205a.438.438 0 1 1 .01.876l-5.217.064a.438.438 0 1 1-.01-.876l5.217-.064z" style="fill-rule:evenodd;clip-rule:evenodd;fill:#9eb28b"/><path d="M421.704 427.751c-2.908-8.675-8.901-35.768-1.614-42.659 3.45-3.264 5.684-2.843 7.642-7.097 2.358-5.122 2.857-16.63 13.74-15.9 10.884.729 2.465 11.658 3.602 16.783.833 3.758 5.483 4.119 5.843 10.419.545 9.539-23.198 31.795-29.213 38.454z" style="fill-rule:evenodd;clip-rule:evenodd;fill:#a2c043"/><path d="M423.391 419.717c1.683-8.785 8.515-32.169 15.251-47.866a.377.377 0 0 1 .492-.198c.19.082.279.302.198.493-6.697 15.607-13.516 38.901-15.193 47.651-.194.208-.375.403-.534.579-.07-.204-.141-.426-.214-.659z" style="fill-rule:evenodd;clip-rule:evenodd;fill:#bcd07e"/><path d="M433.663 374.058a.375.375 0 1 1 .733-.15l1.413 6.892a.374.374 0 1 1-.733.151l-1.413-6.893z" style="fill-rule:evenodd;clip-rule:evenodd;fill:#bcd07e"/><path d="M440.688 375.459a.375.375 0 0 1 .513.547l-5.427 5.111a.372.372 0 0 1-.529-.017.373.373 0 0 1 .017-.529l5.426-5.112zM428.924 382.842a.375.375 0 1 1 .672-.33l3.305 6.706a.375.375 0 0 1-.673.33l-3.304-6.706z" style="fill-rule:evenodd;clip-rule:evenodd;fill:#bcd07e"/><path d="M442.727 383.679a.376.376 0 0 1 .505.16.376.376 0 0 1-.16.505l-10.188 5.303a.374.374 0 1 1-.346-.664l10.189-5.304zM425.191 388.877a.374.374 0 0 1 .147-.51.374.374 0 0 1 .51.147l4.631 8.373a.375.375 0 1 1-.657.363l-4.631-8.373z" style="fill-rule:evenodd;clip-rule:evenodd;fill:#bcd07e"/><path d="M441.946 390.671a.376.376 0 0 1 .507.158.376.376 0 0 1-.158.507l-11.737 6.165a.376.376 0 0 1-.349-.664l11.737-6.166zM425.806 399.337a.373.373 0 0 1 .261-.46.376.376 0 0 1 .461.262l1.875 6.781a.375.375 0 0 1-.722.198l-1.875-6.781z" style="fill-rule:evenodd;clip-rule:evenodd;fill:#bcd07e"/><path d="M433.39 400.582c.15-.142.388-.134.529.017s.134.389-.017.53l-5.427 5.111a.375.375 0 0 1-.512-.547l5.427-5.111z" style="fill-rule:evenodd;clip-rule:evenodd;fill:#bcd07e"/><path d="M418.563 418.053s-20.459.873-22.249-7.831c-1.789-8.703-.884-16.257-4.613-18.579-15.612-9.721-5.105-30.501-4.44-30.419 29.378 3.637 19.81 12.249 25.62 24.323 3.278 6.812 22.54 6.782 5.682 32.506z" style="fill-rule:evenodd;clip-rule:evenodd;fill:#708d75"/><path d="M417.102 414.919a.37.37 0 0 1 .026.108c-.06.093-.116.183-.178.276 0 0-.234.01-.648.017a.393.393 0 0 1-.041-.082c-.024-.063-8.33-22.025-23.889-43.522a.45.45 0 0 1 .728-.527c15.632 21.597 23.978 43.665 24.002 43.73z" style="fill-rule:evenodd;clip-rule:evenodd;fill:#99ad9b"/><path d="M390.516 383.204a.45.45 0 0 1 .214-.874l11.169 2.764a.45.45 0 0 1-.214.874l-11.169-2.764z" style="fill-rule:evenodd;clip-rule:evenodd;fill:#99ad9b"/><path d="M403.351 373.95a.45.45 0 0 1 .888.144l-1.864 11.353a.45.45 0 1 1-.888-.144l1.864-11.353zM396.553 394.226a.45.45 0 1 1 .214-.873l11.168 2.763a.45.45 0 0 1-.214.874l-11.168-2.764z" style="fill-rule:evenodd;clip-rule:evenodd;fill:#99ad9b"/><path d="M409.553 385.037a.45.45 0 0 1 .888.144l-1.863 11.354a.45.45 0 0 1-.888-.145l1.863-11.353zM402.487 406.145a.449.449 0 1 1 .214-.873l11.168 2.763a.45.45 0 0 1-.213.874l-11.169-2.764z" style="fill-rule:evenodd;clip-rule:evenodd;fill:#99ad9b"/><path d="M415.322 396.891a.45.45 0 1 1 .888.145l-1.864 11.353a.45.45 0 1 1-.888-.144l1.864-11.354z" style="fill-rule:evenodd;clip-rule:evenodd;fill:#99ad9b"/><path d="M119.054 412.56c10.134-4.819 47.303-10.608 38.022-23.17-5.736-7.765-23.526-6.554-38.022 23.17z" style="fill-rule:evenodd;clip-rule:evenodd;fill:#bdce60"/><path d="M150.074 392.521a.46.46 0 1 0-.283-.875c-.038.012-10.384 3.254-25.694 16.679a90.887 90.887 0 0 0-.832 1.654c.217-.103.453-.207.699-.311 15.556-13.841 26.072-17.135 26.11-17.147z" style="fill-rule:evenodd;clip-rule:evenodd;fill:#dbe4aa"/><path d="M144.567 394.214a.46.46 0 0 0-.287.873l7.018 2.317a.46.46 0 0 0 .287-.873l-7.018-2.317z" style="fill-rule:evenodd;clip-rule:evenodd;fill:#dbe4aa"/><path d="M143.998 394.384a.461.461 0 1 0 .881.27l1.85-5.967a.46.46 0 1 0-.881-.27l-1.85 5.967zM139.81 397.022a.46.46 0 0 0-.287.873l7.018 2.317a.46.46 0 0 0 .287-.873l-7.018-2.317z" style="fill-rule:evenodd;clip-rule:evenodd;fill:#dbe4aa"/><path d="M138.877 397.289a.46.46 0 1 0 .881.271l1.85-5.968a.462.462 0 0 0-.882-.27l-1.849 5.967zM134.612 400.346a.462.462 0 1 0-.266.884l6.292 1.897a.463.463 0 0 0 .575-.309.46.46 0 0 0-.309-.575l-6.292-1.897z" style="fill-rule:evenodd;clip-rule:evenodd;fill:#dbe4aa"/><path d="M133.844 400.547a.461.461 0 0 0 .911.14l.95-6.176a.46.46 0 1 0-.911-.139l-.95 6.175zM129.473 404.096a.461.461 0 0 0-.091.917l5.46.54a.461.461 0 0 0 .091-.917l-5.46-.54z" style="fill-rule:evenodd;clip-rule:evenodd;fill:#dbe4aa"/><path d="M85.586 416.407c-10.691-3.406-48.302-4.124-40.802-17.824 4.635-8.468 22.426-9.67 40.802 17.824z" style="fill-rule:evenodd;clip-rule:evenodd;fill:#809e6a"/><path d="M52.912 401.309a.436.436 0 0 1-.366-.498.439.439 0 0 1 .499-.367c.038.006 10.748 1.545 27.876 12.513.257.371.514.747.771 1.132a19.856 19.856 0 0 0-1.113-.313c-17.031-10.94-27.629-12.461-27.667-12.467z" style="fill-rule:evenodd;clip-rule:evenodd;fill:#9eb28b"/><path d="M58.338 402.06a.436.436 0 1 1 .402.775l-6.234 3.244a.437.437 0 1 1-.402-.775l6.234-3.244z" style="fill-rule:evenodd;clip-rule:evenodd;fill:#9eb28b"/><path d="M58.898 402.132a.438.438 0 0 1-.786.389l-2.646-5.319a.438.438 0 0 1 .786-.389l2.646 5.319zM63.231 403.97a.438.438 0 0 1 .402.777l-6.234 3.244a.437.437 0 1 1-.402-.775l6.234-3.246z" style="fill-rule:evenodd;clip-rule:evenodd;fill:#9eb28b"/><path d="M64.147 404.08a.439.439 0 0 1-.786.388l-2.645-5.319a.438.438 0 0 1 .786-.389l2.645 5.32zM68.616 406.299a.439.439 0 0 1 .385.789l-5.617 2.738a.44.44 0 0 1-.385-.789l5.617-2.738z" style="fill-rule:evenodd;clip-rule:evenodd;fill:#9eb28b"/><path d="M69.368 406.371a.439.439 0 0 1-.834.271l-1.832-5.652a.438.438 0 1 1 .834-.27l1.832 5.651zM74.012 409.036a.437.437 0 1 1 .225.847l-5.042 1.338a.437.437 0 1 1-.225-.847l5.042-1.338z" style="fill-rule:evenodd;clip-rule:evenodd;fill:#9eb28b"/><path d="M116.2 420.616c-4.941-7.701-17.378-32.505-11.998-40.969 2.548-4.008 4.816-4.146 5.674-8.75 1.033-5.543-1.297-16.823 9.434-18.778 10.732-1.955 5.241 10.701 7.597 15.393 1.727 3.44 6.324 2.654 8.214 8.674 2.862 9.117-14.718 36.503-18.921 44.43z" style="fill-rule:evenodd;clip-rule:evenodd;fill:#a2c043"/><path d="M115.871 412.414c-.518-8.931.389-33.275 3.081-50.143a.376.376 0 0 1 .742.116c-2.678 16.772-3.591 41.026-3.079 49.921-.138.249-.265.482-.376.692-.117-.181-.24-.377-.368-.586z" style="fill-rule:evenodd;clip-rule:evenodd;fill:#bcd07e"/><path d="M114.665 365.629a.375.375 0 1 1 .674-.325l3.056 6.337a.375.375 0 0 1-.674.326l-3.056-6.338z" style="fill-rule:evenodd;clip-rule:evenodd;fill:#bcd07e"/><path d="M121.82 365.27a.375.375 0 0 1 .631.404l-4.011 6.284a.375.375 0 0 1-.632-.405l4.012-6.283zM112.217 375.306a.374.374 0 1 1 .571-.485l4.844 5.695a.374.374 0 1 1-.571.484l-4.844-5.694z" style="fill-rule:evenodd;clip-rule:evenodd;fill:#bcd07e"/><path d="M125.806 372.741a.375.375 0 0 1 .498.559l-8.582 7.634a.374.374 0 1 1-.497-.559l8.581-7.634zM110.074 382.07a.375.375 0 1 1 .548-.513l6.537 6.986a.375.375 0 1 1-.547.513l-6.538-6.986z" style="fill-rule:evenodd;clip-rule:evenodd;fill:#bcd07e"/><path d="M126.759 379.712a.376.376 0 0 1 .501.559l-9.873 8.849a.376.376 0 0 1-.501-.559l9.873-8.849zM113.228 392.063a.374.374 0 1 1 .651-.369l3.477 6.116a.374.374 0 0 1-.651.369l-3.477-6.116z" style="fill-rule:evenodd;clip-rule:evenodd;fill:#bcd07e"/><path d="M120.886 391.415a.375.375 0 1 1 .632.404l-4.012 6.283a.375.375 0 1 1-.631-.405l4.011-6.282z" style="fill-rule:evenodd;clip-rule:evenodd;fill:#bcd07e"/><path d="M110.783 411.98s-19.624 5.85-23.488-2.151c-3.864-8.002-4.833-15.548-9.018-16.888-17.515-5.606-12.409-28.326-11.743-28.409 29.375-3.658 22.204 7.032 30.79 17.319 4.844 5.804 23.513 1.065 13.459 30.129z" style="fill-rule:evenodd;clip-rule:evenodd;fill:#708d75"/><path d="M108.6 409.299c.023.031.04.065.052.099-.036.105-.068.206-.105.313 0 0-.225.066-.625.174a.43.43 0 0 1-.059-.068c-.039-.057-13.464-19.32-33.808-36.358a.45.45 0 0 1 .577-.69c20.439 17.116 33.928 36.474 33.968 36.53z" style="fill-rule:evenodd;clip-rule:evenodd;fill:#99ad9b"/><path d="M75.064 385.05a.45.45 0 0 1-.007-.899l11.505-.053a.45.45 0 0 1 .006.9l-11.504.052z" style="fill-rule:evenodd;clip-rule:evenodd;fill:#99ad9b"/><path d="M85.246 372.938a.45.45 0 0 1 .897-.077l.969 11.464a.45.45 0 0 1-.896.078l-.97-11.465zM83.613 394.261a.45.45 0 0 1-.007-.9l11.505-.052a.45.45 0 0 1 .007.899l-11.505.053z" style="fill-rule:evenodd;clip-rule:evenodd;fill:#99ad9b"/><path d="M93.972 382.171a.449.449 0 1 1 .896-.077l.97 11.464a.45.45 0 0 1-.897.077l-.969-11.464zM92.283 404.366a.45.45 0 0 1-.007-.9l11.505-.052a.45.45 0 0 1 .007.899l-11.505.053z" style="fill-rule:evenodd;clip-rule:evenodd;fill:#99ad9b"/><path d="M102.464 392.254a.45.45 0 0 1 .896-.077l.969 11.464a.45.45 0 0 1-.896.077l-.969-11.464z" style="fill-rule:evenodd;clip-rule:evenodd;fill:#99ad9b"/><path d="M248.823 440.264c119.642 0 214.829-.647 214.829-13.123 0-12.476-96.989-22.59-216.631-22.59-119.641 0-216.629 10.114-216.629 22.59 0 12.476 98.79 13.123 218.431 13.123z" style="fill-rule:evenodd;clip-rule:evenodd;fill:#809e6a"/><path d="M248.823 440.264c119.642 0 214.829-.647 214.829-13.123 0-1.994-2.489-3.927-7.141-5.768-39.641 8.578-42.886 3.038-51.068-1.269-8.557-4.503-22.519-4.503-19.141 3.604s-10.358 8.782-22.969 6.756c-12.61-2.027.9-14.412.9-14.412s-13.736-.225-15.087.676c-1.352.9-5.855 9.458-13.737 14.186-7.881 4.73-17.789 2.252-23.869 3.378-6.08 1.126-54.946.9-92.778.45-37.831-.45-66.88-15.763-72.51-15.763-5.63 0 0 5.404.9 7.881.901 2.478-12.61 3.378-19.816 2.027-6.289-1.179-25.098-7.333-36.37-17.413-37.506 4.062-60.575 9.583-60.575 15.667.001 12.476 98.791 13.123 218.432 13.123z" style="fill-rule:evenodd;clip-rule:evenodd;fill:#6f8b59"/><path d="M250.724 416.861c-10.627-3.602-48.218-5.007-40.469-18.568 4.789-8.381 22.599-9.257 40.469 18.568z" style="fill-rule:evenodd;clip-rule:evenodd;fill:#bdce60"/><path d="M217.576 400.585a.46.46 0 0 1 .178-.902c.039.008 10.693 2.019 27.467 13.563.339.504.679 1.017 1.019 1.545a20.295 20.295 0 0 0-.73-.228c-17.067-11.927-27.896-13.97-27.934-13.978z" style="fill-rule:evenodd;clip-rule:evenodd;fill:#dbe4aa"/><path d="M223.242 401.623a.46.46 0 0 1 .386.834l-6.698 3.121a.458.458 0 1 1-.387-.833l6.699-3.122z" style="fill-rule:evenodd;clip-rule:evenodd;fill:#dbe4aa"/><path d="M223.827 401.726a.46.46 0 1 1-.843.372l-2.535-5.711a.46.46 0 0 1 .843-.371l2.535 5.71zM228.295 403.855a.459.459 0 1 1 .387.834l-6.699 3.122a.46.46 0 0 1-.387-.834l6.699-3.122z" style="fill-rule:evenodd;clip-rule:evenodd;fill:#dbe4aa"/><path d="M229.252 404.013a.46.46 0 1 1-.843.372l-2.535-5.711a.46.46 0 0 1 .843-.372l2.535 5.711zM233.846 406.55a.46.46 0 1 1 .368.845l-6.027 2.619a.46.46 0 1 1-.368-.846l6.027-2.618z" style="fill-rule:evenodd;clip-rule:evenodd;fill:#dbe4aa"/><path d="M234.632 406.66a.46.46 0 1 1-.888.245l-1.665-6.022a.462.462 0 0 1 .889-.246l1.664 6.023zM239.388 409.674a.46.46 0 0 1 .198.9l-5.359 1.174a.46.46 0 0 1-.198-.9l5.359-1.174z" style="fill-rule:evenodd;clip-rule:evenodd;fill:#dbe4aa"/><path d="M278.108 419.475c10.22-4.633 47.488-9.741 38.439-22.471-5.593-7.869-23.402-6.982-38.439 22.471z" style="fill-rule:evenodd;clip-rule:evenodd;fill:#809e6a"/><path d="M308.794 400.661a.438.438 0 0 0-.232-.844c-.037.01-10.494 2.789-26.222 15.684-.212.398-.424.802-.634 1.214.322-.146.682-.292 1.068-.439 15.635-12.855 25.983-15.605 26.02-15.615z" style="fill-rule:evenodd;clip-rule:evenodd;fill:#9eb28b"/><path d="M303.493 402.04a.437.437 0 1 0-.31.818l6.57 2.493a.438.438 0 0 0 .309-.818l-6.569-2.493z" style="fill-rule:evenodd;clip-rule:evenodd;fill:#9eb28b"/><path d="M302.944 402.178a.44.44 0 0 0 .827.294l2.005-5.592a.438.438 0 1 0-.826-.294l-2.006 5.592zM298.856 404.51a.437.437 0 1 0-.308.817l6.57 2.493a.437.437 0 0 0 .309-.818l-6.571-2.492z" style="fill-rule:evenodd;clip-rule:evenodd;fill:#9eb28b"/><path d="M297.959 404.726a.439.439 0 0 0 .827.294l2.005-5.593a.439.439 0 0 0-.826-.294l-2.006 5.593zM293.78 407.451a.44.44 0 1 0-.29.83l5.898 2.064a.44.44 0 0 0 .289-.83l-5.897-2.064z" style="fill-rule:evenodd;clip-rule:evenodd;fill:#9eb28b"/><path d="M293.042 407.611a.438.438 0 1 0 .86.171l1.159-5.827a.438.438 0 1 0-.86-.171l-1.159 5.827zM288.741 410.801a.439.439 0 0 0-.125.867l5.165.74a.438.438 0 0 0 .124-.867l-5.164-.74z" style="fill-rule:evenodd;clip-rule:evenodd;fill:#9eb28b"/><path d="M254.275 418.899c4.008-8.225 13.686-28.683 7.354-36.46-2.999-3.683-5.268-3.555-6.658-8.027-1.674-5.384-.677-16.859-11.564-17.547-10.887-.688-3.954 11.24-5.746 16.176-1.313 3.617-5.97 3.374-7.144 9.574-1.331 7.028 9.915 22.889 17.793 33.515 2.644 3.566 4.684.914 5.965 2.769z" style="fill-rule:evenodd;clip-rule:evenodd;fill:#a2c043"/><path d="M253.869 416.345c-.529-8.93-4.275-33.001-8.92-49.438a.377.377 0 0 0-.462-.261.376.376 0 0 0-.261.463c4.619 16.345 8.361 40.325 8.891 49.219.166.232.319.448.455.644.095-.195.195-.405.297-.627z" style="fill-rule:evenodd;clip-rule:evenodd;fill:#bcd07e"/><path d="M249.6 369.739a.377.377 0 0 0-.231-.477.376.376 0 0 0-.477.232l-2.294 6.65a.375.375 0 1 0 .708.245l2.294-6.65z" style="fill-rule:evenodd;clip-rule:evenodd;fill:#bcd07e"/><path d="M242.452 370.219a.376.376 0 0 0-.58.475l4.718 5.771a.375.375 0 1 0 .579-.474l-4.717-5.772zM253.161 379.064a.377.377 0 0 0-.104-.52.377.377 0 0 0-.52.104l-4.145 6.223a.375.375 0 0 0 .624.414l4.145-6.221z" style="fill-rule:evenodd;clip-rule:evenodd;fill:#bcd07e"/><path d="M239.365 378.105a.374.374 0 0 0-.429.614l9.415 6.579a.375.375 0 0 0 .428-.613l-9.414-6.58zM256.08 385.531a.376.376 0 0 0-.604-.446l-5.676 7.703a.374.374 0 1 0 .603.445l5.677-7.702z" style="fill-rule:evenodd;clip-rule:evenodd;fill:#bcd07e"/><path d="M239.233 385.14a.375.375 0 1 0-.432.613l10.839 7.635a.375.375 0 1 0 .432-.613l-10.839-7.635zM254.116 395.824a.375.375 0 0 0-.69-.291l-2.738 6.481a.374.374 0 1 0 .69.29l2.738-6.48z" style="fill-rule:evenodd;clip-rule:evenodd;fill:#bcd07e"/><path d="M246.435 396.075a.376.376 0 0 0-.58.475l4.719 5.771a.375.375 0 0 0 .58-.474l-4.719-5.772z" style="fill-rule:evenodd;clip-rule:evenodd;fill:#bcd07e"/><path d="M258.871 415.32s20.174 3.516 23.076-4.882c2.902-8.398 2.983-16.007 6.982-17.826 16.74-7.614 9.014-29.582 8.343-29.586-29.602-.201-21.229 9.578-28.555 20.798-4.132 6.33-23.228 3.805-9.846 31.496z" style="fill-rule:evenodd;clip-rule:evenodd;fill:#708d75"/><path d="M260.727 412.401a.432.432 0 0 0-.041.104l.142.298s.23.04.641.1a.396.396 0 0 0 .051-.075c.032-.06 11.114-20.762 29.327-40.06a.45.45 0 0 0-.655-.617c-18.298 19.389-29.433 40.19-29.465 40.25z" style="fill-rule:evenodd;clip-rule:evenodd;fill:#99ad9b"/><path d="M291.198 384.399a.45.45 0 1 0-.098-.894l-11.433 1.293a.45.45 0 0 0 .099.895l11.432-1.294z" style="fill-rule:evenodd;clip-rule:evenodd;fill:#99ad9b"/><path d="M279.671 373.56a.45.45 0 0 0-.899.028l.377 11.499a.45.45 0 0 0 .899-.027l-.377-11.5zM283.784 394.546a.449.449 0 1 0-.099-.893l-11.433 1.293a.45.45 0 0 0 .099.893l11.433-1.293z" style="fill-rule:evenodd;clip-rule:evenodd;fill:#99ad9b"/><path d="M272.084 383.75a.45.45 0 1 0-.899.028l.377 11.499a.45.45 0 1 0 .899-.027l-.377-11.5zM276.355 405.596a.45.45 0 1 0-.1-.894l-11.432 1.293a.448.448 0 0 0-.397.496.448.448 0 0 0 .496.398l11.433-1.293z" style="fill-rule:evenodd;clip-rule:evenodd;fill:#99ad9b"/><path d="M264.828 394.757a.45.45 0 0 0-.9.027l.377 11.499a.45.45 0 0 0 .9-.028l-.377-11.498z" style="fill-rule:evenodd;clip-rule:evenodd;fill:#99ad9b"/><path d="M225.181 417.066h71.384a2.823 2.823 0 0 1 2.815 2.814 2.823 2.823 0 0 1-2.815 2.814h-71.384a2.823 2.823 0 0 1-2.815-2.814 2.823 2.823 0 0 1 2.815-2.814z" style="fill-rule:evenodd;clip-rule:evenodd;fill:#6f8b59"/><path d="M225.181 414.815h71.384a2.823 2.823 0 0 1 2.815 2.814 2.823 2.823 0 0 1-2.815 2.814h-71.384a2.823 2.823 0 0 1-2.815-2.814 2.823 2.823 0 0 1 2.815-2.814z" style="fill-rule:evenodd;clip-rule:evenodd;fill:#ab5f4b"/><path d="M186.111 98.986H292.565s-4.069-5.426-7.597-5.426c-.196 0 1.007-3.442.764-6.372-.64-7.695-8.824-7.433-14.33-3.125 0 0 .543-7.868-6.512-8.682-2.737-.316-4.861 1.248-6.436 3.279-1.52-12.01-14.75-11.455-23.708-4.445 0 0 .901-13.061-10.809-14.412-11.71-1.351-16.664 18.015-16.664 18.015s-7.206-9.458-13.061-5.404c-5.855 4.053 2.702 13.511 2.702 13.511s-15.082 3.153-10.803 13.061zM72.617 169.245H179.073s-4.07-5.426-7.597-5.426c-.196 0 1.007-3.442.764-6.372-.64-7.695-8.825-7.433-14.33-3.125 0 0 .542-7.868-6.512-8.682-2.737-.316-4.861 1.248-6.436 3.279-1.52-12.009-14.749-11.456-23.707-4.445 0 0 .901-13.061-10.809-14.412-11.709-1.351-16.663 18.015-16.663 18.015s-7.206-9.458-13.061-5.404c-5.855 4.053 2.702 13.511 2.702 13.511s-15.086 3.152-10.807 13.061zM297.261 270.128H390.711s-3.572-4.764-6.669-4.764c-.172 0 .885-3.02.671-5.593-.561-6.755-7.746-6.525-12.579-2.743 0 0 .477-6.906-5.717-7.621-2.402-.277-4.268 1.095-5.649 2.878-1.335-10.542-12.948-10.056-20.811-3.901 0 0 .791-11.465-9.488-12.651s-14.629 15.814-14.629 15.814-6.325-8.303-11.465-4.745c-5.14 3.559 2.372 11.861 2.372 11.861s-13.242 2.768-9.486 11.465z" style="fill-rule:evenodd;clip-rule:evenodd;fill:#b3d4c8"/><path d="M250.52 291.067a.343.343 0 0 0-.387-.023.343.343 0 0 0-.032.562c.367.281.785.527 1.184.763a.34.34 0 1 0 .348-.587c-.373-.219-.772-.452-1.113-.715zm37.391 44.379a.342.342 0 0 0 .637-.244l-.123-.322-.148-.385-.149-.382-.074-.189a.34.34 0 1 0-.634.252l.073.186.148.38.147.382.123.322zm-1.262-3.16c.13.308.58.264.649-.063a.333.333 0 0 0-.021-.202l-.065-.158-.156-.367-.156-.365-.16-.371a.343.343 0 0 0-.639.035.327.327 0 0 0 .014.24l.158.366.155.362.155.364.066.159zm-1.37-3.113a.342.342 0 1 0 .619-.288l-.116-.251-.163-.348-.164-.347-.141-.294c-.155-.317-.629-.222-.648.131a.346.346 0 0 0 .033.165l.14.291.162.344.162.347.116.25zm-1.482-3.062a.342.342 0 0 0 .608-.31l-.115-.227-.169-.329-.17-.328-.176-.334a.34.34 0 1 0-.603.321l.173.329.169.325.168.328.115.225zm-1.598-3.003a.342.342 0 0 0 .597-.333l-.228-.407-.176-.31-.176-.308-.097-.168c-.181-.305-.643-.173-.638.181a.35.35 0 0 0 .047.161l.096.167.174.305.175.308.226.404zm-1.712-2.937a.342.342 0 0 0 .583-.357l-.099-.162-.18-.292-.181-.29-.181-.288-.084-.133c-.191-.296-.649-.148-.629.206.004.059.021.11.053.16l.082.131.18.285.179.288.178.29.099.162zm-1.829-2.866a.342.342 0 0 0 .567-.38l-.071-.107-.184-.273-.184-.271-.185-.269-.147-.213a.341.341 0 0 0-.561.388l.146.211.183.267.183.27.253.377zm-1.945-2.787a.341.341 0 0 0 .55-.404l-.146-.2-.188-.253-.186-.251-.188-.25-.11-.147a.342.342 0 0 0-.544.413l.109.145.186.248.186.249.185.25.146.2zm-2.064-2.702c.224.273.663.073.603-.275a.331.331 0 0 0-.07-.152l-.129-.162-.188-.233-.189-.232-.189-.23-.169-.205a.343.343 0 0 0-.527.436l.168.203.187.229.187.229.188.232.128.16zm-2.179-2.609c.228.259.651.056.594-.283a.347.347 0 0 0-.079-.166l-.197-.225-.188-.214-.188-.212-.189-.21-.148-.165a.344.344 0 0 0-.354-.097.342.342 0 0 0-.151.556l.147.163.186.208.188.21.186.212.193.223zm-2.292-2.507a.342.342 0 0 0 .492-.474l-.143-.148-.188-.194-.187-.193-.188-.19-.253-.256a.341.341 0 1 0-.484.481l.249.253.186.19.186.19.187.192.143.149zm-2.406-2.401c.158.15.416.114.528-.073a.339.339 0 0 0-.059-.422l-.32-.305-.185-.173-.184-.171-.313-.289a.342.342 0 0 0-.462.503l.31.286.182.17.183.171.32.303zm-2.512-2.287c.255.219.641-.025.552-.351a.343.343 0 0 0-.105-.166l-.327-.282a52.34 52.34 0 0 0-.718-.608c-.272-.224-.663.059-.535.39a.332.332 0 0 0 .099.135c.346.29.691.585 1.034.882zm-2.617-2.168a.342.342 0 0 0 .422-.537c-.358-.283-.72-.563-1.084-.84a.342.342 0 0 0-.547.242c-.009.12.04.227.135.302.36.274.718.552 1.074.833zm-2.715-2.044a.342.342 0 0 0 .398-.556 86.996 86.996 0 0 0-1.122-.789.341.341 0 1 0-.387.563c.372.257.743.517 1.111.782zm-2.807-1.917a.341.341 0 1 0 .372-.572 93.98 93.98 0 0 0-1.156-.738.342.342 0 0 0-.362.579c.384.241.766.484 1.146.731zm-2.889-1.795c.29.172.628-.137.482-.442a.334.334 0 0 0-.133-.143 117.48 117.48 0 0 0-1.181-.694.342.342 0 0 0-.343.591c.393.227.786.455 1.175.688zM247.292 293.6c-.28-.196-.643.093-.513.41a.344.344 0 0 0 .117.147c.369.263.734.529 1.096.801a.34.34 0 0 0 .406.003.343.343 0 0 0 .004-.549 54.29 54.29 0 0 0-1.11-.812zm26.248 55.335a.34.34 0 1 0 .675-.101l-.03-.208-.069-.453-.069-.451-.037-.24a.342.342 0 0 0-.675.107l.037.238.069.449.068.452.031.207zm-.535-3.364a.342.342 0 0 0 .673-.115l-.066-.39-.075-.435-.093-.524a.342.342 0 0 0-.672.121l.092.522.075.433.066.388zm-.607-3.352a.341.341 0 0 0 .67-.129l-.084-.432-.081-.416-.1-.496a.341.341 0 1 0-.669.137l.099.492.081.414.084.43zm-.68-3.337a.341.341 0 0 0 .667-.145l-.074-.338-.087-.397-.089-.395-.047-.207a.342.342 0 0 0-.666.153l.047.205.088.393.087.395.074.336zm-.763-3.319c.088.347.577.346.664-.002a.333.333 0 0 0-.001-.16l-.121-.495-.094-.377-.115-.457a.343.343 0 0 0-.278-.253.343.343 0 0 0-.383.423l.114.453.094.375.12.493zm-.848-3.298a.341.341 0 1 0 .658-.18l-.135-.493-.1-.357-.132-.469a.342.342 0 0 0-.656.187l.131.465.099.355.135.492zm-.94-3.272c.103.33.572.319.659-.019a.334.334 0 0 0-.006-.18l-.103-.343-.104-.338-.105-.337-.092-.291c-.096-.306-.527-.32-.644-.021a.346.346 0 0 0-.008.227l.092.29.104.334.104.336.103.342zm-1.038-3.241a.343.343 0 0 0 .648-.219l-.126-.37-.109-.317-.109-.316-.102-.292a.342.342 0 0 0-.645.227l.102.29.109.313.108.315.124.369zm-1.143-3.204a.341.341 0 0 0 .638-.242l-.086-.229-.114-.298-.113-.296-.178-.456a.342.342 0 0 0-.636.251l.063.16.113.292.112.293.113.296.088.229zm-1.257-3.161a.341.341 0 1 0 .629-.266l-.09-.214-.117-.276-.117-.274-.118-.272-.097-.222a.342.342 0 1 0-.626.274l.096.219.117.271.117.272.116.275.09.213zm-1.376-3.11a.342.342 0 0 0 .62-.289l-.131-.277-.12-.254-.121-.253-.121-.251-.099-.202a.342.342 0 0 0-.637.06.335.335 0 0 0 .023.239l.098.2.12.249.12.25.119.253.129.275zm-1.506-3.047a.342.342 0 0 0 .605-.317l-.194-.372-.124-.232-.123-.229-.205-.377a.342.342 0 0 0-.599.328l.203.373.122.228.122.229.121.23.072.139zm-1.644-2.972c.175.296.629.177.636-.168a.346.346 0 0 0-.047-.178l-.146-.247-.124-.21-.125-.208-.124-.206-.188-.307a.342.342 0 0 0-.581.358l.185.303.246.409.123.208.145.246zm-1.791-2.885a.342.342 0 0 0 .569-.377l-.203-.308-.249-.37-.315-.461a.342.342 0 0 0-.561.39l.189.274.123.18.123.183c.107.163.217.325.324.489zm-1.947-2.78a.342.342 0 0 0 .547-.409c-.232-.311-.468-.62-.706-.928l-.128-.164a.342.342 0 1 0-.536.423l.246.316.242.316.335.446zm-2.111-2.657a.342.342 0 0 0 .521-.442c-.297-.35-.599-.695-.904-1.037a.344.344 0 0 0-.395-.082.34.34 0 0 0-.113.539c.302.337.6.678.891 1.022zm-2.281-2.506a.342.342 0 0 0 .489-.478 42.566 42.566 0 0 0-.976-.971c-.25-.238-.656.002-.565.338a.342.342 0 0 0 .092.154c.325.314.646.633.96.957zm-2.455-2.335a.342.342 0 1 0 .451-.513 40.415 40.415 0 0 0-1.047-.893.341.341 0 0 0-.435.527c.349.288.693.58 1.031.879zM242.456 296.112a.342.342 0 0 0-.515.448c.294.339.578.686.851 1.041a.342.342 0 0 0 .541-.416 23.039 23.039 0 0 0-.877-1.073zm11.005 43.794a.342.342 0 0 0 .682-.039c-.026-.455-.054-.91-.082-1.365a.342.342 0 0 0-.682.044c.028.453.056.907.082 1.36zm-.222-3.4a.342.342 0 0 0 .681-.052c-.034-.454-.068-.909-.105-1.363-.031-.348-.499-.433-.649-.118a.332.332 0 0 0-.031.173c.037.453.071.906.104 1.36zm-.278-3.398a.342.342 0 0 0 .681-.063 208.94 208.94 0 0 0-.13-1.362.342.342 0 0 0-.679.067c.044.453.087.906.128 1.358zm-.342-3.39a.342.342 0 0 0 .679-.076c-.05-.454-.102-.907-.156-1.36a.342.342 0 0 0-.678.082c.056.451.105.904.155 1.354zm-.412-3.381a.342.342 0 0 0 .677-.091c-.06-.452-.123-.904-.188-1.355a.342.342 0 0 0-.676.097c.065.448.127.899.187 1.349zm-.492-3.37a.342.342 0 0 0 .675-.108c-.072-.45-.146-.9-.224-1.351a.341.341 0 0 0-.673.115c.077.448.151.896.222 1.344zm-.583-3.354c.066.338.532.38.657.052a.344.344 0 0 0 .014-.18c-.085-.448-.172-.897-.263-1.345-.075-.349-.563-.368-.664-.022a.342.342 0 0 0-.005.159c.091.445.177.891.261 1.336zm-.687-3.332a.342.342 0 0 0 .666-.151c-.1-.446-.204-.891-.31-1.335a.342.342 0 1 0-.664.159c.106.443.209.884.308 1.327zm-.808-3.303a.342.342 0 0 0 .66-.176 73.782 73.782 0 0 0-.365-1.323.341.341 0 0 0-.656.188c.124.436.245.873.361 1.311zm-.949-3.262a.341.341 0 0 0 .649-.208c-.139-.437-.282-.87-.43-1.304a.342.342 0 0 0-.646.222c.148.428.289.858.427 1.29zm-1.119-3.204a.34.34 0 0 0 .424.201.34.34 0 0 0 .213-.446 47.145 47.145 0 0 0-.51-1.277.342.342 0 0 0-.631.263c.174.417.342.837.504 1.259zm-1.324-3.119a.341.341 0 0 0 .618-.291 35.337 35.337 0 0 0-.607-1.236.342.342 0 0 0-.608.311c.206.401.407.806.597 1.216zm-1.573-2.993a.342.342 0 0 0 .587-.349 30.93 30.93 0 0 0-.728-1.174.342.342 0 0 0-.571.375c.246.378.483.761.712 1.148z" style="fill-rule:evenodd;clip-rule:evenodd;fill:#0094d1"/><path d="M335.34 416.647c-7.477 7.754-17.052 9.457-15.509 13.862 1.543 4.405 10.317 5.342 19.597 2.091 9.279-3.251 15.551-9.457 14.008-13.862-1.543-4.407-10.618-9.846-18.096-2.091zM408.628 416.647c7.478 7.754 17.053 9.457 15.51 13.862-1.544 4.405-10.317 5.342-19.597 2.091-9.28-3.251-15.552-9.457-14.008-13.862 1.543-4.407 10.617-9.846 18.095-2.091z" style="fill-rule:evenodd;clip-rule:evenodd;fill:#ab5f4b"/><path d="M330.635 415.927c.804 5.031 39.787 5.873 42.414.483 1.911-3.921-7.655-54.088-1.907-112.693 1.575 45.445 6.324 108.339 9.099 112.531 3.935 5.947 45.571 4.121 40.404-10.114-7.231-19.922-19.218-142.025-19.218-142.025-10.538-15.053-20.203-15.313-25.783-8.677-5.966-5.173-22.065-1.266-29.839 8.814-5.391 6.99-18.388 131.549-15.17 151.681z" style="fill-rule:evenodd;clip-rule:evenodd;fill:#5a6074"/><path d="M423.013 200.571c-3.446-2.501-8.362.244-11.077 2.338-7.313 9.81 7.575 17.918 9.796 23.956 1.98 5.385-12.89 29.384-12.01 38.076.641 3.536 1.85 1.803 4.634.565 3.685-1.638 20.806-23.395 23.322-36.803 1.624-8.654-9.694-24.525-14.665-28.132zM347.251 215.844c5.192-5.338-9.52-18.929-10.794-17.62-.048.05-10.097 16.723-18.358 10.976-7.84-8.441-9.568-18.913-12.454-29.355-2.125-7.689-6.85-5.694-7.383.615-1.176 13.885 5.043 39.126 15.795 44.196 14.237 6.713 33.134-8.751 33.194-8.812z" style="fill-rule:evenodd;clip-rule:evenodd;fill:#e4b095"/><path d="M381.941 173.749c23.044 1.998 38.701 19.304 44.695 32.132 1.823 3.901-11.532 16.059-20.349 17.737.381 11.115-4.291 23.703-4.769 33.29-.373 7.494 3.801 13.155 1.855 14.847-9.842 8.555-50.709 6.383-61.877-.815-.961-.619 4.489-9.429 4.406-14.027-.203-11.256-1.936-25.91-1.737-34.349-2.284-2.599-15.552-15.867-13.991-17.937 9.301-12.324 26.803-33.042 51.767-30.878z" style="fill-rule:evenodd;clip-rule:evenodd;fill:#d78271"/><path d="M344.189 222.571c-2.291-2.562-15.574-15.875-14.014-17.944 5.665-7.509 14.376-18.134 25.965-24.8-6.674 11.571-11.952 42.769-11.951 42.744z" style="fill-rule:evenodd;clip-rule:evenodd;fill:#d78271"/><path d="M344.323 222.756c-.928-1.037-3.792-4.022-6.608-7.125l10.976-11.995c-2.447 10.133-4.368 19.134-4.368 19.12z" style="fill-rule:evenodd;clip-rule:evenodd;fill:#cd7c6c"/><path d="M398.596 178.744c8.652 1.781 25.029 16.293 29.366 25.573 1.819 3.895-13.87 18.428-22.388 19.387-.128-1.984-1.569-22.872-6.978-44.96z" style="fill-rule:evenodd;clip-rule:evenodd;fill:#d78271"/><path d="M412.488 221.226c-2.343 1.312-4.393 2.02-6.199 2.395-.407-1.085-2.123-7.204-2.425-17.226l8.624 14.831z" style="fill-rule:evenodd;clip-rule:evenodd;fill:#cd7c6c"/><ellipse cx="393.846" cy="120.693" rx="6.961" ry="7.103" style="fill-rule:evenodd;clip-rule:evenodd;fill:#c35334"/><path d="M362.038 134.538c-.963 7.652 12.025 22.967 22.272 25.282 11.575 2.614 23.008-23.339 10.924-35.361-10.64-10.587-31.155-6.136-33.196 10.079z" style="fill-rule:evenodd;clip-rule:evenodd;fill:#c35334"/><path d="M393.749 129.449a.224.224 0 1 1 .361.267c-.008.011-2.675 3.664-9.668 8.418a.223.223 0 0 1-.311-.06.225.225 0 0 1 .06-.312c6.927-4.709 9.55-8.303 9.558-8.313zM394.567 134.089a.225.225 0 0 1 .445.06c-.427 3.113-2.769 6.282-5.039 9.354l-.309.418a.222.222 0 0 1-.313.046.223.223 0 0 1-.047-.314l.309-.418c2.237-3.025 4.543-6.147 4.954-9.146zM388.566 122.319a.225.225 0 1 1-.042.447c-.021-.002-7.345-.79-12.806 6.017a.224.224 0 1 1-.349-.282c5.614-6.998 13.176-6.185 13.197-6.182zM389.869 123.711a.227.227 0 0 1 .318.022.226.226 0 0 1-.022.317c-.017.015-5.842 5.096-8.339 7.611a.225.225 0 1 1-.318-.317c2.518-2.536 8.344-7.618 8.361-7.633z" style="fill-rule:evenodd;clip-rule:evenodd;fill:#d5987b"/><path d="M387.103 120.676a.225.225 0 0 1-.085.442c-.04-.008-14.025-2.852-19.012 9.733a.224.224 0 1 1-.417-.165c5.127-12.936 19.472-10.018 19.514-10.01z" style="fill-rule:evenodd;clip-rule:evenodd;fill:#d5987b"/><path d="M396.792 151.689c1.98-3.549 3.304-7.866 3.555-12.196-2.728-7.484-8.021-22.365-25.569-19.863-4.097 1.251-7.741 3.773-10.102 7.468 18.18-9.472 34.65 8.371 32.116 24.591z" style="fill-rule:evenodd;clip-rule:evenodd;fill:#729fa3"/><path d="M397.295 117.635a.225.225 0 0 1-.324.312c-.005-.005-1.883-1.974-2.586-1.522-.045.029-.032.121.021.251.075.187.231.415.44.655.219.251.489.51.785.746.911.729 2.067 1.288 2.65.831a.593.593 0 0 0 .222-.327c.062-.254-.041-.574-.257-.914-.233-.369-.597-.751-1.029-1.094-.854-.677-1.968-1.202-2.906-1.202a.224.224 0 0 1 0-.449c1.045 0 2.264.567 3.186 1.299.472.374.87.793 1.13 1.205.279.439.406.878.313 1.26a1.036 1.036 0 0 1-.382.575c-.783.614-2.158.004-3.206-.834a6.542 6.542 0 0 1-.845-.801c-.241-.276-.424-.546-.518-.781-.141-.344-.109-.63.153-.799 1.016-.653 3.146 1.582 3.153 1.589z" style="fill-rule:evenodd;clip-rule:evenodd;fill:#d5987b"/><path d="M387.342 175.739c4.065 11.272-26.207 19.5-21.095 4.461 1.059-3.113 3.084-7.73 3.642-16.103.784-11.792 8.221-11.322 12.752-10.544 7.857 1.349.652 10.957 4.701 22.186z" style="fill-rule:evenodd;clip-rule:evenodd;fill:#e4b095"/><path d="M368.731 172.251c.472-2.156 1.001-5.118 1.202-8.153.617-9.265 5.34-10.96 9.533-10.883 2.125.265 4.454 1.447 6.984 3.877.272 1.656-.076 4.22-.286 6.699-5.079 8.665-11.148 9.421-17.433 8.46z" style="fill-rule:evenodd;clip-rule:evenodd;fill:#d38078"/><path d="M391.819 145.003s.906-1.461 1.727-1.783c1.832-.719 4.359-.019 3.348 5.112-1.464 7.428-10.621 6.025-5.075-3.329z" style="fill-rule:evenodd;clip-rule:evenodd;fill:#e0ab8e"/><path d="M362.008 135.11c-2.137 7.798-4.676 29.909 10.737 31.545 13.265 1.408 19.114-10.304 19.556-20.636.077-1.812-1.813 2.555-2.058.906-.266-1.787-.447-5.262-1.017-8.417-.602-3.328-4.95-8.169-7.956-9.36-7.884-3.127-17.335-1.072-19.262 5.962z" style="fill-rule:evenodd;clip-rule:evenodd;fill:#e4b095"/><path d="M381.414 143.14a.318.318 0 1 1 .486.411c-.008.01-2.832 3.414-5.469.211a.32.32 0 0 1 .043-.448.319.319 0 0 1 .448.044c2.146 2.607 4.485-.21 4.492-.218zM369.516 144.364a.32.32 0 0 1 .449-.038.32.32 0 0 1 .037.449c-.008.01-2.833 3.414-5.469.211a.317.317 0 1 1 .491-.404c2.146 2.608 4.485-.21 4.492-.218zM378.678 154.789a.318.318 0 1 1 .526.359c-.012.017-4.115 6.14-9.565 2.874a.317.317 0 0 1-.109-.436c.09-.15.285-.2.435-.109 4.93 2.953 8.702-2.673 8.713-2.688zM363.306 139.197c.667-1.514 3.158-2.909 4.96-2.308 2.286.762 2.064 1.232.107 1.632-1.915.392-4.953.943-5.067.676z" style="fill-rule:evenodd;clip-rule:evenodd;fill:#5c474c"/><path d="M383.582 145.968a2.829 2.829 0 1 0-1.76 5.377 2.829 2.829 0 0 0 1.76-5.377zM365.213 146.856a2.829 2.829 0 1 0-1.757 5.377 2.829 2.829 0 0 0 1.757-5.377z" style="fill-rule:evenodd;clip-rule:evenodd;fill:#da8d73"/><path d="M296.721 197.271c-.951-2.004.726-16.74.854-20.319.668-18.458 8.288-19.828 11.347-16.446 2.282 2.523.927 5.997-1.839 16.13-.341 1.249 5.889 15.446 5.666 18.061-.264 3.098-14.746 5.271-16.028 2.574z" style="fill-rule:evenodd;clip-rule:evenodd;fill:#729fa3"/><path d="M307.919 173.609c-.261.938-.54 1.944-.836 3.027-.154.566 1.04 3.79 2.372 7.391a19.126 19.126 0 0 1-1.123-.419c-4.954-2.027-9.346-4.729-8.558-11.485 0 0 4.452.791 8.145 1.486z" style="fill-rule:evenodd;clip-rule:evenodd;fill:#587d84"/><path d="M322.475 138.571a.319.319 0 0 1 .399.496c-.044.036-15.324 11.947-23.889 52.39a.32.32 0 0 1-.378.246.32.32 0 0 1-.246-.378c8.614-40.666 24.07-52.718 24.114-52.754z" style="fill-rule:evenodd;clip-rule:evenodd;fill:#7e7f51"/><path d="m321.068 140.722.005.001c1.536.223 3.219-.521 4.713-1.664a14.683 14.683 0 0 0 2.908-3.007c.775-1.076 1.298-2.14 1.415-2.937.065-.449.006-.827-.202-1.099-.311-.405-.901-.503-1.646-.359-.81.157-1.827.604-2.85 1.247a13.7 13.7 0 0 0-2.876 2.408c-1.426 1.598-2.301 3.497-1.659 5.254a.242.242 0 0 0 .192.156zM321.841 143.429c-1.499-.05-2.989.158-4.322.814-.009.005-.018.009-.025.015a.24.24 0 0 0-.069.333c2.64 4.037 7.516 4.222 10.763 3.534.872-.185 1.629-.434 2.194-.688.602-.271 1.005-.564 1.127-.814.094-.191.072-.364-.079-.507l-.018-.018c-.311-.272-.979-.576-1.786-.874-1.067-.393-2.394-.784-3.446-1.071-1.359-.371-2.853-.674-4.339-.724z" style="fill-rule:evenodd;clip-rule:evenodd;fill:#a5b53e"/><path d="M314.212 149.471c.016-.146.381-3.957-4.447-6.045a14.449 14.449 0 0 1-.36-.165c-1.085-.503-4.105-1.905-4.488-1.828h-.001c-.174.035-.248.137-.213.313.101.499.593 2.626 1.966 4.554 1.387 1.946 3.662 3.691 7.324 3.391a.242.242 0 0 0 .219-.22z" style="fill-rule:evenodd;clip-rule:evenodd;fill:#8e9b39"/><path d="M314.24 149.85c.005-.01 1.763-3.536-2.15-7.194l-.283-.278c-.852-.84-3.225-3.176-3.612-3.232-.175-.026-.279.046-.306.223-.073.504-.326 2.672.318 4.949.649 2.299 2.206 4.708 5.755 5.66a.24.24 0 0 0 .278-.128zM317.88 152.102c-5.12-.625-6.768 2.702-6.887 2.958a.24.24 0 0 0 .074.311c3.008 2.108 5.854 1.753 8.033.774 2.16-.97 3.658-2.556 3.998-2.935.119-.134.106-.26-.025-.378-.292-.261-3.607-.578-4.798-.691a17.13 17.13 0 0 1-.395-.039zM309.17 158.824c.633-1.419.371-3.243-.325-4.992a14.705 14.705 0 0 0-2.108-3.614c-.826-1.038-1.708-1.829-2.444-2.156-.414-.185-.794-.23-1.112-.103-.475.189-.729.732-.792 1.488-.067.823.088 1.923.43 3.08a13.737 13.737 0 0 0 1.54 3.42c1.152 1.806 2.744 3.162 4.609 3.021a.248.248 0 0 0 .202-.144z" style="fill-rule:evenodd;clip-rule:evenodd;fill:#a5b53e"/><path d="M314.365 141.498a.318.318 0 0 1 .563.297c-.045.085-15.757 29.535-8.318 41.552a.318.318 0 0 1-.541.335c-7.634-12.332 8.25-42.099 8.296-42.184z" style="fill-rule:evenodd;clip-rule:evenodd;fill:#7e7f51"/><path d="M314.594 141.866c.004-.023 1.082-8.011-1.951-7.768-1.6.129-1.758 1.263-1.205 2.851.501 1.436 1.616 3.27 2.715 5.014a.24.24 0 0 0 .441-.097z" style="fill-rule:evenodd;clip-rule:evenodd;fill:#d47a66"/><path d="M314.461 141.62c-.306-.172-7.038-3.92-7.923-1.077-.478 1.531.517 2.1 2.195 2.179 1.521.071 3.638-.28 5.665-.65a.238.238 0 0 0 .193-.279.234.234 0 0 0-.13-.173z" style="fill-rule:evenodd;clip-rule:evenodd;fill:#b16658"/><path d="M314.381 141.596c-.022-.003-8.036-.877-7.716 2.149.169 1.595 1.308 1.725 2.881 1.131 1.425-.538 3.229-1.7 4.943-2.841a.24.24 0 0 0-.108-.439z" style="fill-rule:evenodd;clip-rule:evenodd;fill:#d47a66"/><path d="M314.129 141.754c-.008.022-2.736 7.607.28 8.005 1.591.21 1.983-.866 1.775-2.535-.189-1.509-.896-3.536-1.604-5.471a.241.241 0 0 0-.308-.143.248.248 0 0 0-.143.144z" style="fill-rule:evenodd;clip-rule:evenodd;fill:#d47a66"/><path d="M314.123 141.896c.006.023 2.033 7.824 4.748 6.451 1.431-.724 1.147-1.834.034-3.094-1.009-1.142-2.735-2.416-4.41-3.613a.24.24 0 0 0-.372.256z" style="fill-rule:evenodd;clip-rule:evenodd;fill:#d47a66"/><path d="M314.266 142.058c.038.016 7.472 3.082 8.008.091.283-1.58-.773-2.021-2.45-1.891-1.52.118-3.575.729-5.54 1.348a.24.24 0 0 0-.156.301.234.234 0 0 0 .138.151z" style="fill-rule:evenodd;clip-rule:evenodd;fill:#d47a66"/><path d="M314.473 142.045c.021-.011 7.072-3.916 5.065-6.205-1.058-1.206-2.061-.655-3.006.738-.853 1.258-1.657 3.248-2.4 5.17a.24.24 0 0 0 .341.297z" style="fill-rule:evenodd;clip-rule:evenodd;fill:#d47a66"/><path d="M314.671 140.882a1.142 1.142 0 0 0-.846.084c-.253.133-.45.359-.533.648a1.07 1.07 0 0 0 .109.832c.142.242.378.434.673.519.296.085.598.046.846-.084.253-.133.45-.36.533-.649a1.065 1.065 0 0 0-.109-.832 1.141 1.141 0 0 0-.673-.518z" style="fill-rule:evenodd;clip-rule:evenodd;fill:#bf4b18"/><path d="M303.38 152.731a.29.29 0 1 1 .522-.257c.017.033 5.712 11.39 2.361 19.594-.623 1.526-1.262 2.838-1.87 4.088-2.651 5.446-4.732 9.72-1.426 23.163a.292.292 0 0 1-.566.139c-3.357-13.648-1.235-18.005 1.468-23.557.611-1.257 1.254-2.577 1.857-4.051 3.25-7.958-2.331-19.086-2.346-19.119z" style="fill-rule:evenodd;clip-rule:evenodd;fill:#7e7f51"/><path d="M303.211 150.681c-.006-.022-2.121-7.8-4.821-6.395-1.423.741-1.127 1.847 0 3.094 1.02 1.128 2.762 2.383 4.452 3.563a.24.24 0 0 0 .334-.06.245.245 0 0 0 .035-.202z" style="fill-rule:evenodd;clip-rule:evenodd;fill:#c98583"/><path d="M302.992 150.505c-.348-.04-8.009-.873-7.718 2.091.156 1.596 1.293 1.734 2.871 1.153 1.428-.526 3.241-1.674 4.965-2.803a.24.24 0 0 0-.118-.441z" style="fill-rule:evenodd;clip-rule:evenodd;fill:#d47a66"/><path d="M302.909 150.515c-.021.006-7.744 2.32-6.27 4.982.776 1.404 1.875 1.08 3.093-.079 1.105-1.05 2.315-2.822 3.448-4.542a.241.241 0 0 0-.068-.333.245.245 0 0 0-.203-.028z" style="fill-rule:evenodd;clip-rule:evenodd;fill:#c98583"/><path d="M302.953 150.632c-.017.016-5.965 5.457-3.48 7.214 1.31.926 2.158.157 2.751-1.416.538-1.426.856-3.547 1.131-5.589a.242.242 0 0 0-.402-.209z" style="fill-rule:evenodd;clip-rule:evenodd;fill:#c98583"/><path d="M302.739 150.759c.001.023.439 8.072 3.373 7.265 1.547-.426 1.49-1.57.648-3.026-.761-1.316-2.2-2.909-3.606-4.416a.24.24 0 0 0-.415.177z" style="fill-rule:evenodd;clip-rule:evenodd;fill:#c98583"/><path d="M302.788 150.892c.015.018 4.918 6.416 6.884 4.095 1.037-1.224.344-2.136-1.172-2.864-1.374-.66-3.46-1.162-5.469-1.612a.24.24 0 0 0-.243.381z" style="fill-rule:evenodd;clip-rule:evenodd;fill:#c98583"/><path d="M302.983 150.985c.041-.001 8.081-.068 7.411-3.032-.354-1.565-1.499-1.561-2.992-.788-1.353.7-3.01 2.064-4.579 3.397a.24.24 0 0 0 .16.423z" style="fill-rule:evenodd;clip-rule:evenodd;fill:#ab7474"/><path d="M303.018 151.045c.04.011 7.792 2.147 7.959-.888.089-1.602-1.015-1.912-2.662-1.577-1.494.303-3.46 1.161-5.334 2.014a.24.24 0 0 0 .037.451z" style="fill-rule:evenodd;clip-rule:evenodd;fill:#c98583"/><path d="M303.168 150.893c.015-.018 4.991-6.359 2.253-7.686-1.443-.699-2.155.199-2.482 1.849-.296 1.491-.263 3.637-.199 5.698a.24.24 0 0 0 .247.232.246.246 0 0 0 .181-.093z" style="fill-rule:evenodd;clip-rule:evenodd;fill:#c98583"/><path d="M302.898 149.744c-.306.038-.568.19-.746.407a1.058 1.058 0 0 0 .186 1.529 1.147 1.147 0 0 0 1.568-.191 1.056 1.056 0 0 0-.187-1.529 1.137 1.137 0 0 0-.821-.216z" style="fill-rule:evenodd;clip-rule:evenodd;fill:#924a4a"/><path d="M309.293 132.462a.319.319 0 0 1 .626-.118c1.529 8.142.691 17.739-1.803 26.932-2.594 9.564-6.982 18.7-12.364 25.311a.318.318 0 1 1-.493-.402c5.323-6.541 9.67-15.593 12.242-25.077 2.47-9.106 3.303-18.603 1.792-26.646z" style="fill-rule:evenodd;clip-rule:evenodd;fill:#7e7f51"/><path d="M310.244 132.672c-.002-.023-.627-8.06-3.542-7.184-1.536.462-1.452 1.604-.578 3.04.791 1.298 2.268 2.857 3.709 4.331a.24.24 0 0 0 .411-.187z" style="fill-rule:evenodd;clip-rule:evenodd;fill:#d47a66"/><path d="M310.152 132.682c-.01-.021-3.26-7.397-5.721-5.605-1.297.944-.84 1.994.461 3.06 1.177.964 3.086 1.945 4.934 2.859a.24.24 0 0 0 .321-.108.247.247 0 0 0 .005-.206z" style="fill-rule:evenodd;clip-rule:evenodd;fill:#dfa2a0"/><path d="M310.063 132.459c-.335-.104-7.705-2.353-7.974.613-.144 1.597.947 1.945 2.605 1.668 1.501-.25 3.497-1.039 5.401-1.826a.24.24 0 0 0-.032-.455z" style="fill-rule:evenodd;clip-rule:evenodd;fill:#d47a66"/><path d="M309.978 132.453c-.022.003-8.041.833-7.092 3.724.501 1.524 1.641 1.411 3.055.5 1.28-.826 2.8-2.34 4.235-3.817a.24.24 0 0 0-.006-.34.236.236 0 0 0-.192-.067z" style="fill-rule:evenodd;clip-rule:evenodd;fill:#dfa2a0"/><path d="M310 132.577c-.02.012-6.879 4.246-4.768 6.436 1.114 1.155 2.092.558 2.968-.878.794-1.3 1.504-3.325 2.155-5.279a.24.24 0 0 0-.355-.279z" style="fill-rule:evenodd;clip-rule:evenodd;fill:#d47a66"/><path d="M309.766 132.661c-.003.022-1.075 8.012 1.957 7.767 1.6-.13 1.757-1.265 1.202-2.852-.501-1.436-1.618-3.269-2.718-5.012a.24.24 0 0 0-.331-.075.235.235 0 0 0-.109.172h-.001z" style="fill-rule:evenodd;clip-rule:evenodd;fill:#dfa2a0"/><path d="M309.789 132.8c.011.021 3.633 7.222 5.998 5.309 1.247-1.009.737-2.034-.616-3.032-1.227-.904-3.182-1.788-5.071-2.605a.24.24 0 0 0-.311.328z" style="fill-rule:evenodd;clip-rule:evenodd;fill:#d47a66"/><path d="M309.925 132.873c.041-.004 8.047-.743 7.132-3.641-.483-1.53-1.624-1.43-3.048-.535-1.29.811-2.827 2.308-4.279 3.768a.24.24 0 0 0 .195.408z" style="fill-rule:evenodd;clip-rule:evenodd;fill:#dfa2a0"/><path d="M309.986 132.995c.037.018 7.253 3.564 7.984.615.386-1.558-.64-2.067-2.321-2.047-1.523.019-3.615.494-5.616.982a.24.24 0 0 0-.047.45z" style="fill-rule:evenodd;clip-rule:evenodd;fill:#d47a66"/><path d="M310.162 132.873c.018-.016 6.092-5.316 3.648-7.131-1.287-.956-2.153-.206-2.783 1.353-.569 1.409-.938 3.524-1.26 5.56a.238.238 0 0 0 .199.274.241.241 0 0 0 .196-.056z" style="fill-rule:evenodd;clip-rule:evenodd;fill:#d47a66"/><path d="M310.111 131.694a1.143 1.143 0 0 0-.809.26 1.066 1.066 0 0 0-.385.746c-.02.3.089.581.282.79.189.207.46.345.767.366.307.02.594-.08.809-.26a1.058 1.058 0 0 0 .104-1.536 1.14 1.14 0 0 0-.768-.366z" style="fill-rule:evenodd;clip-rule:evenodd;fill:#d27272"/><path d="M396.253 177.161a55.48 55.48 0 0 1 7.15 3.192c-.15 11.162-.036 29.866 2.94 39.033l-.056.01c.678 18.004 1.522 40.257-2.913 43.762-9.842 7.777-48.307 4.984-59.475-1.561-3.311-1.94-.014-32.355.267-43.161l-.002-.002c.967-3.39 5.105-20.735 6.302-35.47a59.396 59.396 0 0 1 7.992-4.525c-.698 8.085-.704 25.264 11.811 25.431 13.466.183 23.509-13.996 25.984-26.709z" style="fill-rule:evenodd;clip-rule:evenodd;fill:#729fa3"/><path d="M403.682 200.241c.374 7.351 1.148 14.482 2.662 19.146l-.056.01c.678 18.004 1.522 40.257-2.913 43.762-.268.211-.559.413-.866.608-2.158-16.375-.656-46.217 1.173-63.526z" style="fill-rule:evenodd;clip-rule:evenodd;fill:#6a9295"/><path d="M391.911 196.039a.318.318 0 1 1 .518.369c-.03.042-10.417 14.995-31.216 9.48a.319.319 0 0 1 .162-.616c20.37 5.401 30.507-9.191 30.536-9.233zM390.628 216.698a.317.317 0 1 1 .513.374c-.036.048-12.086 16.873-36.662 20.401a.318.318 0 1 1-.089-.631c24.309-3.489 36.203-20.095 36.238-20.144zM388.188 234.223a.318.318 0 0 1 .537.344c-.025.041-8.707 13.838-28.516 22.605a.32.32 0 0 1-.257-.583c19.63-8.689 28.21-22.327 28.236-22.366z" style="fill-rule:evenodd;clip-rule:evenodd;fill:#93b5b8"/><path d="M422.681 260.516c-1.932 2.005-12.403 10.221-14.602 13.411-1.676 2.432.666 12.98-3.701 17.703-1.114 1.204-3.666-11.221-4.355-14.864-1.133-5.993-1.002-10.189 2.425-12.512 3.236-2.195 7.284-9.891 10.362-13.064 1.736-1.788 11.519 7.615 9.871 9.326z" style="fill-rule:evenodd;clip-rule:evenodd;fill:#729fa3"/><path d="M368.998 151.939c.159.798 1.132 1.303 3.255.46l2.123-.843s-1.963 7.09-5.378.383z" style="fill-rule:evenodd;clip-rule:evenodd;fill:#d38078"/><path d="M370.727 150.97c.047-.854-.095-2.121-.302-1.996-.206.126-.398 1.597-.445 2.452-.081 1.472.699.423.747-.456z" style="fill-rule:evenodd;clip-rule:evenodd;fill:#fff"/><path d="M395.446 145.113c.729.511 1.047 1.771.071 3.65s-2.022 2.631-2.022 2.631.619-2.049-.111-2.158c-.732-.108-1.442.197-1.442.197s1.247-4.014 3.504-4.32z" style="fill-rule:evenodd;clip-rule:evenodd;fill:#d38078"/><path d="M395.817 145.253a.225.225 0 1 1-.233.385.905.905 0 0 0-.771-.093c-.266.086-.564.293-.892.677-.547.641-1.164 1.958-1.47 2.656.459-.118 1.109-.178 1.36.317.358.706-.022 1.5-.023 1.502a.224.224 0 1 1-.406-.19c.001-.001.287-.6.029-1.11-.198-.391-1.145.003-1.261.054a.227.227 0 0 1-.188.009.226.226 0 0 1-.124-.293c.003-.007.928-2.285 1.741-3.237.386-.452.754-.702 1.095-.813a1.35 1.35 0 0 1 1.143.136z" style="fill-rule:evenodd;clip-rule:evenodd;fill:#935b47"/><path d="M378.006 117.54c-.617-1.66-1.959-2.149-5.47-2.605-4.869-.632-5.881-5.818-6.008-3.288-.655 13.099 13.775 12.074 11.478 5.893z" style="fill-rule:evenodd;clip-rule:evenodd;fill:#82bbbf"/><path d="M378.159 117.399c1.266-2.227 2.903-2.17 6.518-3.616 4.721-1.888 5.26-2.832 5.26-2.832-1.4 14.663-15.378 12.784-11.778 6.448z" style="fill-rule:evenodd;clip-rule:evenodd;fill:#82bbbf"/><path d="M383.646 138.465c-.667-1.514-3.158-2.909-4.96-2.308-2.286.762-2.064 1.232-.107 1.633 1.915.391 4.954.942 5.067.675z" style="fill-rule:evenodd;clip-rule:evenodd;fill:#5c474c"/><path d="M304.15 159.757c3.265-1.689 8.332-1.126 9.345 3.603.541 2.523-.748 5.559-2.054 8.291-1.142 2.388-2.136 4.598-4.026 5.333-4.053 1.576-3.265-2.927-6.868-1.914-3.603 1.013-.112-13.737 3.603-15.313z" style="fill-rule:evenodd;clip-rule:evenodd;fill:#729fa3"/><path d="M304.71 170.933a.318.318 0 0 1 .117-.625 4.775 4.775 0 0 1 2.923 1.761c1.03 1.299 1.294 2.924 1.219 3.491a.318.318 0 1 1-.63-.082c.064-.476-.177-1.864-1.087-3.012a4.16 4.16 0 0 0-2.542-1.533zM307.188 167.443a.32.32 0 0 1 .117-.626 4.778 4.778 0 0 1 2.923 1.761c1.029 1.299 1.294 2.925 1.219 3.491a.317.317 0 1 1-.63-.082c.064-.476-.177-1.864-1.087-3.012a4.166 4.166 0 0 0-2.542-1.532zM308.876 162.996a.318.318 0 0 1 .117-.626 4.778 4.778 0 0 1 2.923 1.761c1.03 1.299 1.294 2.924 1.219 3.491a.318.318 0 0 1-.631-.082c.063-.476-.177-1.864-1.087-3.012a4.148 4.148 0 0 0-2.541-1.532zM402.224 285.523a.32.32 0 0 1-.424-.476c.454-.403.733-.915.901-1.615.176-.739.23-1.688.23-2.932v-2.983a.319.319 0 1 1 .637 0v2.983c0 1.29-.059 2.283-.248 3.078-.197.834-.537 1.448-1.096 1.945zM403.28 290.487a.317.317 0 0 1-.396-.496c1.955-1.564 2.149-6.16 2.343-10.746l.014-.334a.32.32 0 0 1 .637.025l-.015.334c-.2 4.731-.4 9.471-2.583 11.217z" style="fill-rule:evenodd;clip-rule:evenodd;fill:#587d84"/><path d="M391.593 290.182a.318.318 0 0 1 .635.002c-.001.139-.529 47.547 20.749 126.389a.32.32 0 0 1-.616.164c-21.298-78.92-20.769-126.417-20.768-126.555zM403.037 418.829a.32.32 0 0 1-.226.391.32.32 0 0 1-.391-.226c-2.399-8.927-7.577-31.667-11.938-60.637-2.794-18.567-5.253-39.7-6.429-61.407a.317.317 0 0 1 .301-.334.32.32 0 0 1 .335.302c1.175 21.673 3.632 42.787 6.424 61.345 4.358 28.944 9.529 51.654 11.924 60.566zM377.328 303.7a.319.319 0 0 1 .636-.034c.011.185 3.584 63.873 13.533 115.625a.319.319 0 0 1-.626.119c-9.957-51.79-13.532-115.524-13.543-115.71zM420.436 403.847a.343.343 0 1 1-.662.177c-2.094-7.754-4.944-18.836-8.383-33.491-2.481-10.579-6.084-30.934-9.494-51.735-1.308-7.977-2.49-19.189-3.714-25.26a.341.341 0 0 1 .671-.132c1.386 6.88 2.077 16.261 3.56 25.419 3.242 20.021 7.291 41.531 9.642 51.556 3.423 14.586 6.277 25.679 8.38 33.466zM346.733 289.262a.318.318 0 1 1 .636.04c-.015.232-5.171 80.457-9.521 129.661a.319.319 0 0 1-.346.29.319.319 0 0 1-.291-.345c4.355-49.245 9.507-129.414 9.522-129.646zM352.823 296.376a.319.319 0 0 1 .636.04l-7.807 123.439a.319.319 0 0 1-.636-.04l7.807-123.439zM358.647 292.899a.319.319 0 1 1 .636.055c-.019.216-6.512 74.794-6.175 127.136a.317.317 0 0 1-.635.002c-.338-52.396 6.156-126.977 6.174-127.193zM364.023 310.976a.32.32 0 0 1 .637.022l-4.181 108.876a.318.318 0 1 1-.636-.021l4.18-108.877z" style="fill-rule:evenodd;clip-rule:evenodd;fill:#878b9d"/><path d="M323.948 429.907a.319.319 0 0 1 .294-.564c1.34.702 3.499 1.44 6.487 1.44 2.164 0 4.759-.388 7.784-1.459 7.241-2.563 11.004-6.878 11.015-6.891a.316.316 0 0 1 .449-.027.316.316 0 0 1 .027.448c-.012.014-3.883 4.453-11.279 7.07-3.103 1.099-5.77 1.497-7.996 1.497-3.109.002-5.372-.775-6.781-1.514zM420.441 430.02a.317.317 0 0 1 .428.135.317.317 0 0 1-.134.429c-1.409.738-3.673 1.516-6.781 1.516-2.228 0-4.894-.398-7.997-1.497-7.396-2.617-11.268-7.058-11.278-7.07a.318.318 0 0 1 .475-.421c.012.013 3.774 4.328 11.016 6.891 3.025 1.07 5.62 1.459 7.784 1.459 2.987-.002 5.148-.74 6.487-1.442z" style="fill-rule:evenodd;clip-rule:evenodd;fill:#984a2c"/><path d="M157.76 167.356c-3.878-10.834 6.818 1.549 17.993 13.133 8.085 10.924 33.308 27.641 48.638 28.041 2.003.052 8.042-5.959 12.645-5.333 1.897.258-1.948 4.208-1.144 5.845.771 1.568 6.202.641 8.157.89 7.848.994 16.694 18.626-18.722 17.701-14.503-.378-34.457-7.994-47.157-19.497-14.255-12.91-14.678-24.767-20.41-40.78z" style="fill-rule:evenodd;clip-rule:evenodd;fill:#e0ab8e"/><path d="M167.342 248.798c-2.165-7.022-13.865-9.018-20.594-6.758-1.455.489-3.311.792-5.303 1.039-3.055-3.545-9.295-4.623-14.507-4.098-5.012.505-15.594-2.254-21.206 2.82-5.809 5.252-2.807 30.551-2.398 37.899 2.99 53.776 3.399 50.653-15.98 120.102-.165.346-.315.687-.461 1.026 3.61 4.379 12.418 6.49 16.377 6.243 3.959-.247 1.85-.368 3.07-.648-.182-.271 28.091-69.647 29.624-79.243 2.111-13.217 3.711-28.572 4.87-42.233 15.197 42.814 12.502 61.06 6.367 124.273-.064.255-.116.504-.171.755 4.474 2.413 15.626 3.669 20.146 1.227-.361-.332 1.152-5.645 1.331-6.293 8.793-31.958 9.363-46.529 9.724-73.103.24-17.81-.488-49.425-10.889-83.008z" style="fill-rule:evenodd;clip-rule:evenodd;fill:#586589"/><path d="M167.342 248.798c-2.165-7.022-13.865-9.018-20.594-6.758-1.455.489-3.311.792-5.303 1.039-3.055-3.545-9.295-4.623-14.507-4.098-5.012.505-15.594-2.254-21.206 2.82-2.467 2.231-3.345 8.08-3.506 14.632 14.607 12.119 47.61 18.789 67.027-1.104a220.754 220.754 0 0 0-1.911-6.531z" style="fill-rule:evenodd;clip-rule:evenodd;fill:#495575"/><path d="M87.203 400.389c-.884 1.697-3.496 9.116-3.157 10.696 2.316 10.78 32.874 24.694 37.787 21.378 7.515-6.024-9.56-16.561-15.248-26.677-9.621 1.715-15.999-2.254-19.382-5.397z" style="fill-rule:evenodd;clip-rule:evenodd;fill:#6a6a98"/><path d="M103.068 412.194a.318.318 0 1 1 .097-.628c.012.001 4.091.668 5.852-1.493a.318.318 0 1 1 .494.401c-1.994 2.448-6.43 1.722-6.443 1.72zM107.214 416.603a.318.318 0 1 1 .097-.629c.012.002 4.091.668 5.852-1.493a.319.319 0 0 1 .494.402c-1.995 2.448-6.43 1.722-6.443 1.72zM111.06 421.138a.317.317 0 1 1 .098-.628c.012.002 4.09.668 5.852-1.493a.319.319 0 0 1 .494.401c-1.996 2.447-6.431 1.722-6.444 1.72z" style="fill-rule:evenodd;clip-rule:evenodd;fill:#a4add4"/><path d="m147.201 409.936-.001.028c-1.703 6.437-4.087 10.831.381 13.033 17.568 8.657 38.537 12.145 41.607 8.531 5.612-7.821-13.646-13.369-21.856-21.572-8.782 3.831-15.636 2.278-20.131-.02z" style="fill-rule:evenodd;clip-rule:evenodd;fill:#6a6a98"/><path d="M167.203 418.245a.318.318 0 1 1-.085-.631c.012-.001 4.107-.542 5.169-3.12a.32.32 0 0 1 .415-.173c.163.066.24.253.173.415-1.202 2.919-5.659 3.507-5.672 3.509zM172.446 421.268a.318.318 0 1 1-.085-.631c.012-.001 4.107-.542 5.169-3.12a.318.318 0 0 1 .588.242c-1.202 2.919-5.66 3.507-5.672 3.509zM177.438 424.496a.319.319 0 0 1-.085-.63c.012-.001 4.108-.542 5.169-3.12a.32.32 0 0 1 .415-.173c.163.066.24.253.173.415-1.201 2.919-5.659 3.507-5.672 3.508z" style="fill-rule:evenodd;clip-rule:evenodd;fill:#a4add4"/><path d="M185.01 185.525c-16.933-22.866-28.766-38.07-36.516-34.199-6.78 3.386-10.966 14.868 3.487 44.921 4.97 10.335 37.686-4.433 33.029-10.722z" style="fill-rule:evenodd;clip-rule:evenodd;fill:#807ea5"/><path d="M142.357 162.035c-.577 7.044 1.773 17.888 9.624 34.211 3.555 7.393 21.305 1.941 29.42-4.063-16.449-22.182-27.999-36.777-35.609-32.976a9.876 9.876 0 0 0-3.435 2.828z" style="fill-rule:evenodd;clip-rule:evenodd;fill:#6a6a98"/><path d="M97.467 244.231c6.414 16.635 51.304 31.898 74.632 6.162 1.978-2.182-5.501-8.275-5.724-16.61-.77-28.814 1.542-58.85-17.335-88.261-3.074-4.79-10.675-5.44-14.895-4.756-23.77 3.853-24.449 24.476-30.287 53.006-2.149 10.504-1.696 26.008-2.022 38.83-.114 4.457-5.634 8.349-4.369 11.629z" style="fill-rule:evenodd;clip-rule:evenodd;fill:#807ea5"/><path d="M97.467 244.231c3.128 8.113 15.408 15.896 29.873 18.76-3.429-1.893-6.216-3.933-7.827-6.081-8.106-10.809.451-69.357 1.351-97.281-3.702 4.318-8.275 9.457-13.304 15.089-1.198 5.814-2.302 12.204-3.703 19.052-2.149 10.504-1.696 26.008-2.022 38.83-.113 4.459-5.633 8.351-4.368 11.631z" style="fill-rule:evenodd;clip-rule:evenodd;fill:#6a6a98"/><path d="M168.927 269.697a1.8 1.8 0 0 1-1.479-.771c-7.837-11.23-4.752-22.914.749-30.104 2.499-3.266 5.706-5.898 9.03-7.411 3.634-1.654 7.199-1.939 10.309-.822 3.112 1.117 5.606 3.628 7.213 7.259 1.711 3.865 2.462 9.016 2.233 15.312a1.803 1.803 0 0 1-3.601-.131c.209-5.745-.439-10.362-1.926-13.724-1.215-2.746-2.943-4.538-5.136-5.326-4.563-1.638-10.838 1.253-15.259 7.032-4.727 6.178-7.382 16.214-.656 25.852a1.803 1.803 0 0 1-1.477 2.834z" style="fill:#d57b19"/><path d="M223.629 255.957s-20.245 43.286-22.389 43.374c-6.844.28-34.635-18.67-37.318-28.944-.451-1.727 33.83-33.818 33.83-33.818s19.861 12.699 25.877 19.388z" style="fill-rule:evenodd;clip-rule:evenodd;fill:#efc61c"/><path d="M195.51 292.767a.225.225 0 0 1-.177-.365c12.998-16.377 19.419-32.503 19.482-32.664a.226.226 0 0 1 .42.164c-.063.162-6.507 16.348-19.548 32.78a.23.23 0 0 1-.177.085zM170.637 272.236a.225.225 0 0 1-.182-.358c12.378-16.936 26.272-27.447 26.411-27.551a.225.225 0 1 1 .271.36c-.139.104-13.98 10.577-26.318 27.457a.227.227 0 0 1-.182.092zM176.065 279.762a.225.225 0 0 1-.132-.044.224.224 0 0 1-.049-.315c12.379-16.938 26.272-27.447 26.411-27.552a.226.226 0 0 1 .316.045c.074.1.054.24-.045.315-.138.104-13.98 10.577-26.317 27.457a.232.232 0 0 1-.184.094zM184.589 286.725a.225.225 0 0 1-.158-.385c14.911-14.656 23.264-29.872 23.347-30.024a.225.225 0 1 1 .396.216c-.083.152-8.466 15.424-23.427 30.129a.23.23 0 0 1-.158.064z" style="fill:#f4e497"/><path d="M207.832 250.164c-7.272-5.261-11.799-11.281-10.21-13.477 1.588-2.195 8.689.265 15.961 5.526 7.273 5.26 11.747 11.354 10.159 13.549-1.588 2.197-8.638-.338-15.91-5.598z" style="fill-rule:evenodd;clip-rule:evenodd;fill:#e1a517"/><path d="M221.182 254.264a.222.222 0 0 1-.08-.015c-7.735-2.929-12.927-7.099-15.92-10.081-3.249-3.238-4.688-5.824-4.703-5.85a.225.225 0 0 1 .395-.217c.014.025 1.431 2.567 4.64 5.762 2.96 2.947 8.096 7.068 15.747 9.966a.225.225 0 0 1-.079.435z" style="fill:#e7ba4c"/><path d="M205.29 269.935c-5.704 2.813-3.743 13.626 1.751 13.716.035-.017 7.846-4.263 16.707-3.655 4.972.341 10.274 2.209 14.719 7.209 1.382.658 7.521-4.531 6.659-5.903-5.745-6.463-12.172-9.851-18.159-11.506-11.648-3.222-21.629.115-21.677.139z" style="fill-rule:evenodd;clip-rule:evenodd;fill:#d57b19"/><path d="M241.682 282.103c-.05 0-.1-.017-.142-.051-9.48-7.666-18.895-9.443-25.124-9.585-6.747-.156-11.297 1.521-11.342 1.538a.225.225 0 0 1-.158-.422c.046-.018 4.675-1.723 11.51-1.566 6.299.143 15.819 1.939 25.398 9.685.096.078.111.22.033.316a.222.222 0 0 1-.175.085z" style="fill:#de9c53"/><path d="M113.514 175.604c-5.193 13.062-5.92 23.398-2.579 31.139 6.65 15.402 35.248 20.911 50.127 22.979l9.957-.02c6.136-1.892 6.793-2.156 10.559-.49l-5.262 4.166s8.386 3.054 9.826 5.425c1.44 2.371-1.245 6.116-4.136 5.554-2.892-.562-3.503-.423-3.503-.423s-8.824 8.372-15.042 8.44c-6.218.067-46.873-6.743-63.208-23.715-16.334-16.971-10.714-42.129-.911-58.051 9.14-14.845 21.095-12.418 14.172 4.996z" style="fill-rule:evenodd;clip-rule:evenodd;fill:#ebc3a4"/><path d="M112.401 203.51c3.658-10.112 20.73-57.214 11.149-58.314-6.898-.792-20.941 7.626-32.441 28.149-2.091 3.73-6.195 15.74-8.058 20.281-2.164 5.275 28.111 13.308 29.35 9.884z" style="fill-rule:evenodd;clip-rule:evenodd;fill:#807ea5"/><path d="M126.102 152.802c18.24 9.908 18.691 11.034 18.691 11.034s9.232-11.034 10.133-15.087c2.234-10.052-61.352-13.617-28.824 4.053z" style="fill-rule:evenodd;clip-rule:evenodd;fill:#81ada5"/><path d="M165.32 120.831c1.75-1.714 3.654-3.204 4.092-.298.438 2.906-1.92 7.452-4.533 7.229-2.614-.224.441-6.931.441-6.931z" style="fill-rule:evenodd;clip-rule:evenodd;fill:#d89282"/><path d="M170.417 108.065c.54 5.044-4.414 13.151-5.945 15.133-1.531 1.981-1.081-15.313-1.081-15.313l7.026.18z" style="fill-rule:evenodd;clip-rule:evenodd;fill:#5c474c"/><path d="M138.61 111.618c-.81 2.847-4.031 12.28-6.62 20.357-1.956 6.103-3.122 9.181-3.041 10.31.569 7.973 11.165 14.106 18.536 10.278 1.171-.608 4.038-16.454 4.824-19.273 6.512-23.374-12.217-19.679-13.699-21.672z" style="fill-rule:evenodd;clip-rule:evenodd;fill:#e4b095"/><path d="M137.46 115.293c-1.137 3.499-2.834 8.565-4.445 13.512-2.269 6.967 8.795 17.351 15.957 19.564 1.458-5.839 2.805-13.173 3.337-15.079 1.547-5.553 1.668-9.576.936-12.513-3.684-3.614-8.772-5.829-15.785-5.484z" style="fill-rule:evenodd;clip-rule:evenodd;fill:#d89282"/><path d="M134.516 114.646c-2.325-4.024-7.813-2.832-7.687 2.832.127 5.664 6.254 6.409 6.254 6.409s-1.17 10.538 5.176 15.494c6.347 4.955 17.65 6.238 21.441 2.512 3.792-3.726 8.684-31.482 8.024-35.357-.659-3.875-9.189-10.818-19.129-8.731-9.937 2.086-14.079 16.841-14.079 16.841z" style="fill-rule:evenodd;clip-rule:evenodd;fill:#ebc3a4"/><path d="M134.516 114.646c-.533-.922-1.232-1.569-1.992-1.953.225 1.521.575 3.307 1.288 6.659.227 1.066 2.242-2.541 6.232-5.243 1.948-1.32 3.079-7.654 3.698-6.714 1.784 2.711 10.593 6.055 18.528 6.255a29.03 29.03 0 0 0 4.989-.297c.442-3.293.635-5.831.467-6.818-.659-3.875-9.189-10.818-19.129-8.731-9.939 2.087-14.081 16.842-14.081 16.842zM130.565 114.826c-1.038.511-1.819 1.771-1.245 3.65.575 1.879 1.592 2.631 1.592 2.631s-.093-2.049.82-2.158c.912-.108 1.668.197 1.668.197s-.223-4.014-2.835-4.32z" style="fill-rule:evenodd;clip-rule:evenodd;fill:#d89282"/><path d="M154.945 133.171c-3.22.979-4.558 3.557-4.419 4.037.139.481-1.099-.321-3.111-1.638-2.012-1.317-2.702-3.741-2.776-5.23-.074-1.489.829-2.873 1.419-2.276.591.597 2.605 3.056 5.077 3.754 2.471.698 3.81 1.353 3.81 1.353z" style="fill-rule:evenodd;clip-rule:evenodd;fill:#8c6237"/><path d="M150.359 137.47c-.156-2.048-2.082-4.156-3.999-4.854-1.917-.698-1.43-.256-1.43-.256s1.073 4.29 5.429 5.11z" style="fill-rule:evenodd;clip-rule:evenodd;fill:#d47851"/><path d="M156.008 132.659c-.654 4.447-10.243.636-11.303-3.427-.357-1.366 1.083-1.375 1.083-1.375s3.714 5.595 10.22 4.802z" style="fill-rule:evenodd;clip-rule:evenodd;fill:#fff"/><path d="M158.108 131.889a.264.264 0 0 1 .236.472c-1.62.808-4.233.848-6.691.086-2.129-.659-4.154-1.919-5.334-3.802-.294-.469-.554-.676-.766-.683-.287-.008-.538.386-.684 1.006-.167.714-.173 1.695.067 2.743.544 2.373 2.354 5.064 6.409 5.729a.263.263 0 1 1-.086.52c-4.321-.709-6.253-3.589-6.836-6.131-.259-1.129-.25-2.197-.066-2.98.206-.877.646-1.431 1.211-1.414.384.011.797.295 1.197.931 1.107 1.765 3.021 2.952 5.041 3.577 2.336.724 4.796.698 6.302-.054z" style="fill-rule:evenodd;clip-rule:evenodd;fill:#8c6237"/><path d="M156.676 126.099c-.16.798-1.132 1.303-3.255.46l-2.122-.843s1.961 7.09 5.377.383z" style="fill-rule:evenodd;clip-rule:evenodd;fill:#d89282"/><path d="M154.946 125.129c-.047-.854.095-2.121.301-1.996.206.126.398 1.598.446 2.452.081 1.472-.698.424-.747-.456z" style="fill-rule:evenodd;clip-rule:evenodd;fill:#fff"/><path d="M149.709 118.634c-.094.954-.749 1.67-1.465 1.6-.715-.07-1.22-.9-1.126-1.854.093-.954.749-1.671 1.464-1.601.716.071 1.22.901 1.127 1.855z" style="fill-rule:evenodd;clip-rule:evenodd;fill:#6a4f2f"/><path d="M143.517 105.144c1.784 2.711 10.593 6.055 18.528 6.255 6.772.171 16.72-1.929 10.854-10.249-9.09-12.891-31.217-18.157-34.422-6.41-.026.096-7.624.767-6.564 12.264.294 3.182.776 6.986 2.012 12.798.227 1.066 1.904-5.243 5.894-7.945 1.948-1.319 3.078-7.654 3.698-6.713z" style="fill-rule:evenodd;clip-rule:evenodd;fill:#5c474c"/><path d="M130.242 115.364a.224.224 0 1 1-.178-.412c.413-.179.875-.259 1.335-.123.378.111.748.367 1.076.831.683.964 1.073 3.26 1.074 3.266a.225.225 0 0 1-.322.239c-.13-.053-1.199-.467-1.627-.004a1.246 1.246 0 0 0-.329 1.098.223.223 0 0 1-.163.273.223.223 0 0 1-.273-.163 1.724 1.724 0 0 1 .436-1.514c.456-.492 1.281-.362 1.764-.228-.136-.666-.462-2.054-.927-2.711-.263-.372-.549-.574-.835-.659-.346-.099-.705-.034-1.031.107z" style="fill-rule:evenodd;clip-rule:evenodd;fill:#935b47"/><path d="M161.444 120.957c-.093.954-.749 1.671-1.464 1.601-.715-.07-1.22-.9-1.126-1.854.094-.954.749-1.67 1.465-1.601.715.071 1.219.901 1.125 1.854z" style="fill-rule:evenodd;clip-rule:evenodd;fill:#6a4f2f"/><path d="M142.381 120.896a2.862 2.862 0 1 1 .217 5.72 2.862 2.862 0 0 1-.217-5.72zM161.297 126.346c1.58-.053 2.909 1.024 2.969 2.405.06 1.38-1.172 2.542-2.751 2.595-1.58.053-2.909-1.024-2.969-2.405-.061-1.381 1.171-2.543 2.751-2.595z" style="fill-rule:evenodd;clip-rule:evenodd;fill:#da8d73"/><path d="M151.916 114.323c-3.076-1.637-4.61-1.262-5.79-1.095-1.911.271.886-2.988 3.508-2.279 2.877.776 4.388 4.495 2.282 3.374zM164.508 117.588c-2.224-1.637-3.579-1.262-4.595-1.095-1.646.271 1.352-2.988 3.39-2.28 2.236.777 2.728 4.496 1.205 3.375z" style="fill-rule:evenodd;clip-rule:evenodd;fill:#5c474c"/><path d="M235.835 210.635a.318.318 0 1 1 .539-.339c1.019 1.609 1.494 3.727 1.572 5.856.09 2.473-.354 4.974-1.098 6.71a.318.318 0 0 1-.417.168.32.32 0 0 1-.169-.418c.711-1.659 1.135-4.058 1.047-6.439-.074-2.025-.519-4.03-1.474-5.538zM239.539 213.262a.32.32 0 0 1 0-.638c1.566 0 8.568-.56 8.588-.562a.32.32 0 0 1 .05.636c-.02.002-7.052.564-8.638.564zM239.37 217.146a.32.32 0 0 1 0-.638c.655 0 10.573-1.232 10.601-1.236a.319.319 0 1 1 .077.634c-.028.003-9.982 1.24-10.678 1.24zM239.314 221.144a.319.319 0 1 1 0-.638c.78 0 10.419-.729 10.447-.73a.318.318 0 1 1 .048.635c-.028.002-9.699.733-10.495.733z" style="fill-rule:evenodd;clip-rule:evenodd;fill:#cc8766"/><path d="M178.27 243.588a.32.32 0 0 1 .038.636c-1.017.06-6.235-1.585-6.249-1.59a.32.32 0 0 1 .19-.609c.012.005 5.123 1.616 6.021 1.563zM172.723 247.704a.319.319 0 1 1-.13.623c-2.164-.455-4.369-1.247-4.376-1.249a.319.319 0 1 1 .213-.601c.006.002 2.178.782 4.293 1.227zM167.62 250.918a.32.32 0 0 1-.17.614c-2.699-.746-3.636-1.391-3.639-1.392a.319.319 0 1 1 .354-.531c.004 0 .862.592 3.455 1.309zM176.48 232.67a.317.317 0 1 1-.1.628c-1.768-.285-3.185-.682-3.189-.683a.319.319 0 1 1 .172-.613c.005.001 1.394.39 3.117.668z" style="fill-rule:evenodd;clip-rule:evenodd;fill:#df9e73"/><path d="M135.253 114.867a.318.318 0 1 1-.628-.1c.723-4.516 3.86-10.568 5.41-13.558.398-.769.69-1.333.803-1.602.041-.098.056-.152.049-.165-.005-.008-.019.013-.067.014-.128.002-.307.049-.524.142-.938.401-2.391 1.583-3.618 3.67-2.211 3.758-2.321 7.495-2.321 7.505a.318.318 0 1 1-.636-.02c0-.011.115-3.909 2.408-7.807 1.307-2.221 2.887-3.493 3.917-3.934.293-.125.555-.189.767-.192.292-.004.509.1.628.308.105.186.109.429-.014.723-.121.29-.419.865-.825 1.649-1.536 2.962-4.642 8.955-5.349 13.367zM160.512 92.57a.318.318 0 0 1-.253.583c-3.135-1.363-6.386-1.624-9.259-1.321-4.108.434-7.419 2.007-8.51 3.161-.154.163-.237.394-.249.678-.022.527.19 1.215.63 1.986.455.798 1.148 1.673 2.074 2.547 2.844 2.687 7.843 5.326 14.779 5.625 12.5.539 9.845-4.249 9.837-4.263a.318.318 0 0 1 .564-.297c.009.017 3.192 5.783-10.429 5.195-7.113-.306-12.255-3.027-15.188-5.797-.973-.919-1.706-1.846-2.191-2.697-.5-.876-.74-1.682-.712-2.328.019-.438.159-.809.421-1.086 1.165-1.233 4.642-2.908 8.909-3.358 2.967-.312 6.328-.041 9.577 1.372z" style="fill-rule:evenodd;clip-rule:evenodd;fill:#785d5b"/><path d="M141.976 97.115a.318.318 0 1 1-.112-.626c3.65-.664 9.134-1.405 14.301-1.332 3.655.052 7.157.511 9.755 1.692a.318.318 0 1 1-.261.581c-2.513-1.142-5.927-1.587-9.501-1.638-5.119-.071-10.559.665-14.182 1.323z" style="fill-rule:evenodd;clip-rule:evenodd;fill:#785d5b"/><path d="M142.785 96.747a.319.319 0 0 1 .297-.564c4.857 2.568 9.126 3.685 12.654 4.103 3.526.418 6.318.139 8.216-.084a.318.318 0 1 1 .073.634c-1.93.227-4.768.511-8.363.084-3.594-.427-7.939-1.563-12.877-4.173z" style="fill-rule:evenodd;clip-rule:evenodd;fill:#785d5b"/><path d="M108.161 264.765a.32.32 0 0 1 .636.053c-.72 8.502-.61 17.557-.127 25.938.484 8.389 1.34 16.1 2.109 21.905 1.486 11.21-6.861 39.766-13.206 61.471-2.725 9.322-5.079 17.377-6.122 22.235a.32.32 0 0 1-.378.246.32.32 0 0 1-.246-.378c1.045-4.867 3.404-12.94 6.135-22.28 6.328-21.649 14.654-50.134 13.186-61.211-.772-5.822-1.63-13.552-2.114-21.953-.485-8.412-.596-17.497.127-26.026zM146.24 287.653a.319.319 0 0 1 .591-.237c6.613 16.532 9.082 34.385 9.341 52.35.258 17.949-1.69 36.008-3.917 52.973a.319.319 0 0 1-.631-.082c2.224-16.942 4.17-34.974 3.912-52.883-.257-17.893-2.715-35.669-9.296-52.121z" style="fill-rule:evenodd;clip-rule:evenodd;fill:#495575"/><path d="M241.251 283.603c2.5-2.236 5.22-3.272 6.076-2.315.857.957-.476 3.546-2.975 5.781s-5.22 3.272-6.076 2.315c-.856-.957.476-3.546 2.975-5.781z" style="fill-rule:evenodd;clip-rule:evenodd;fill:#bf6719"/></svg>